<svg width="727" height="489" viewBox="0 0 727 489" fill="none" xmlns="http://www.w3.org/2000/svg">
<path d="M632.3 487.324C631.546 487.324 630.935 486.714 630.935 485.959V109.865C630.935 109.111 631.546 108.5 632.3 108.5C633.055 108.5 633.665 109.111 633.665 109.865V485.959C633.665 486.714 633.054 487.324 632.3 487.324Z" fill="#263238"/>
<path d="M579.549 487.324C578.794 487.324 578.184 486.714 578.184 485.959V188.991C578.184 188.237 578.794 187.626 579.549 187.626C580.304 187.626 580.914 188.237 580.914 188.991V485.959C580.914 486.714 580.304 487.324 579.549 487.324Z" fill="#263238"/>
<path d="M654.768 487.324C654.014 487.324 653.403 486.714 653.403 485.959V270.071C653.403 269.316 654.014 268.706 654.768 268.706C655.523 268.706 656.133 269.316 656.133 270.071V485.959C656.133 486.714 655.522 487.324 654.768 487.324Z" fill="#263238"/>
<path d="M622.53 487.324C621.776 487.324 621.165 486.714 621.165 485.959V348.221C621.165 347.466 621.776 346.856 622.53 346.856C623.285 346.856 623.895 347.466 623.895 348.221V485.959C623.895 486.714 623.285 487.324 622.53 487.324Z" fill="#263238"/>
<path d="M610.51 118.783L548.71 90.692L600.879 97.1126L568.774 74.6406L608.904 87.4817L584.826 34.5106L614.522 69.8251C614.522 69.8251 616.93 30.4977 616.93 26.4849C616.93 22.472 626.561 52.9711 626.561 52.9711L640.205 0L642.612 48.9583L653.848 39.3274L652.243 69.8265L691.571 25.6837L669.9 77.8522L691.571 71.4317L677.927 94.7076L717.254 93.1025L684.348 112.366L712.439 113.971L671.506 124.404L678.73 134.035L648.23 121.996L661.874 140.456L633.783 122.799L604.889 138.048L610.51 118.783Z" fill="#1188F7"/>
<path d="M601.283 386.75L548.71 362.853L593.089 368.315L565.778 349.198L599.916 360.123L579.434 315.06L604.696 345.102C604.696 345.102 606.745 311.647 606.745 308.233C606.745 304.819 614.939 330.764 614.939 330.764L626.546 285.701L628.595 327.35L638.153 319.156L636.788 345.101L670.244 307.549L651.809 351.928L670.244 346.466L658.637 366.265L692.092 364.9L664.099 381.286L687.996 382.651L653.176 391.527L659.32 399.721L633.376 389.48L644.983 405.183L621.086 390.162L596.507 403.134L601.283 386.75Z" fill="#1188F7"/>
<path d="M570.598 235.706L506.411 257.807L548.703 226.596L509.941 232.355L547.907 214.085L494 192.182L539.845 197.401C539.845 197.401 514.55 167.192 511.79 164.277C509.03 161.363 536.996 176.885 536.996 176.885L510.479 129.042L545.893 162.933L547.428 148.214L567.235 171.461L565.434 112.368L585.574 165.147L596.892 145.583L602.99 171.865L630.44 143.656L619.794 180.27L641.293 162.119L618.748 197.842L630.616 199.868L600.193 212.099L622.794 216.12L590.257 222.615L579.765 253.555L570.598 235.706Z" fill="#1188F7"/>
<path d="M634.423 284.452L590.545 248.425L631.315 264.866L610.22 239.782L639.877 258.815L631.846 210.819L648.225 245.759C648.225 245.759 658.653 214.501 659.518 211.258C660.384 208.015 661.589 234.738 661.589 234.738L684.039 194.878L675.425 234.957L686.582 229.599L678.706 253.897L720.005 226.711L691.243 264.191L710.138 263.677L694.093 279.541L726.218 286.726L695.473 295.193L717.825 302.548L682.499 302.148L686.258 311.488L664.211 295.182L671.254 313.04L652.363 292.714L625.727 298.804L634.423 284.452Z" fill="#1188F7"/>
<path d="M691.518 489H0.481645C0.215777 489 0 488.776 0 488.5C0 488.224 0.215777 488 0.481645 488H691.518C691.784 488 692 488.224 692 488.5C692 488.777 691.785 489 691.518 489Z" fill="#263238"/>
<path d="M84.3904 333.626H58.4182V486.991H84.3904V333.626Z" fill="#263238"/>
<path d="M84.3903 487.735H58.4181C57.7479 487.735 57.2039 487.402 57.2039 486.992V333.624C57.2039 333.215 57.7479 332.882 58.4181 332.882H84.3903C85.0605 332.882 85.6045 333.215 85.6045 333.624V486.991C85.6045 487.402 85.0605 487.735 84.3903 487.735ZM59.6324 486.25H83.1761V334.367H59.6324V486.25Z" fill="#263238"/>
<path d="M608.698 333.626H582.726V486.991H608.698V333.626Z" fill="#263238"/>
<path d="M608.698 487.735H582.726C582.055 487.735 581.511 487.402 581.511 486.992V333.624C581.511 333.215 582.055 332.882 582.726 332.882H608.698C609.368 332.882 609.912 333.215 609.912 333.624V486.991C609.912 487.402 609.368 487.735 608.698 487.735ZM583.94 486.25H607.484V334.367H583.94V486.25Z" fill="#263238"/>
<path d="M642.786 9.74194H16.2143V339.68H642.786V9.74194Z" fill="white"/>
<path d="M642.786 340.423H16.2142C15.544 340.423 15 340.09 15 339.68V9.74214C15 9.33248 15.544 9 16.2142 9H642.786C643.456 9 644 9.33248 644 9.74214V339.68C644 340.09 643.456 340.423 642.786 340.423ZM17.4284 338.938H641.572V10.4843H17.4284V338.938Z" fill="#263238"/>
<path d="M642.786 339.679H16.2143V352.972H642.786V339.679Z" fill="#263238"/>
<path d="M642.786 353.716H16.2142C15.544 353.716 15 353.384 15 352.974V339.681C15 339.271 15.544 338.938 16.2142 338.938H642.786C643.456 338.938 644 339.271 644 339.681V352.974C644 353.384 643.456 353.716 642.786 353.716ZM17.4284 352.232H641.572V340.423H17.4284V352.232Z" fill="#263238"/>
</svg>
