<svg width="146" height="112" viewBox="0 0 146 112" fill="none" xmlns="http://www.w3.org/2000/svg">
<path d="M146 57.0238C146 71.4486 135.626 83.445 121.945 85.9318C121.185 98.7595 110.564 108.929 97.5717 108.929C91.2514 108.929 85.4932 106.523 81.1573 102.575C77.2309 108.268 70.6717 112 63.2429 112C54.4951 112 46.955 106.828 43.4967 99.3688C41.1795 100.571 38.5486 101.251 35.7594 101.251C26.9412 101.251 19.7055 94.4661 18.9648 85.8223C8.1134 83.3991 0 73.6959 0 62.0915C0 48.6629 10.8637 37.7771 24.2652 37.7771C25.6118 37.7771 26.9329 37.8886 28.2191 38.1006C30.4944 30.1685 37.7883 24.3658 46.4358 24.3658C47.7222 24.3658 48.9778 24.4948 50.1916 24.7394C52.8625 10.6524 65.2138 0 80.0497 0C96.1209 0 109.277 12.4991 110.37 28.3255C112.402 27.879 114.512 27.6415 116.677 27.6415C132.872 27.6417 146 40.796 146 57.0238Z" fill="#E2EDEF"/>
</svg>
