<svg width="1077" height="610" viewBox="0 0 1077 610" fill="none" xmlns="http://www.w3.org/2000/svg">
<path d="M1065.2 610H1.21229C0.802934 610 0.470703 609.668 0.470703 609.258C0.470703 608.849 0.802934 608.517 1.21229 608.517H1065.2C1065.61 608.517 1065.94 608.849 1065.94 609.258C1065.94 609.669 1065.61 610 1065.2 610Z" fill="#263238"/>
<path d="M754.562 41.6669C754.576 41.6698 903.536 66.5693 983.307 198.744C1063.08 330.924 960.313 445.039 845.143 469.006C729.974 492.974 672.723 463.828 574.955 479.33C477.188 494.832 344.846 582.962 202.378 543.023C49.1177 500.053 23.2453 323.501 84.3356 199.972C172.479 21.739 423.736 -5.26812 605.464 11.7691C629.934 14.0635 654.188 17.3606 678.024 21.9926C703.913 27.022 728.738 37.3508 754.562 41.6669Z" fill="#9EBEDF"/>
<g opacity="0.7">
<path d="M754.562 41.6669C754.576 41.6698 903.536 66.5693 983.307 198.744C1063.08 330.924 960.313 445.039 845.143 469.006C729.974 492.974 672.723 463.828 574.955 479.33C477.188 494.832 344.846 582.962 202.378 543.023C49.1177 500.053 23.2453 323.501 84.3356 199.972C172.479 21.739 423.736 -5.26812 605.464 11.7691C629.934 14.0635 654.188 17.3606 678.024 21.9926C703.913 27.022 728.738 37.3508 754.562 41.6669Z" fill="white"/>
</g>
<g opacity="0.3">
<path d="M232.817 0H231.334V572.101H232.817V0Z" fill="black"/>
<path d="M242.372 0H240.889V572.101H242.372V0Z" fill="black"/>
<path d="M555.296 0H553.813V572.101H555.296V0Z" fill="black"/>
<path d="M564.852 0H563.369V572.101H564.852V0Z" fill="black"/>
<path d="M856.276 0H854.793V572.101H856.276V0Z" fill="black"/>
<path d="M865.832 0H864.349V572.101H865.832V0Z" fill="black"/>
<path d="M493.142 24.5365L398.19 119.502L399.239 120.55L494.191 25.5853L493.142 24.5365Z" fill="black"/>
<path d="M466.838 22.1713L450.117 38.8926L451.166 39.9413L467.887 23.22L466.838 22.1713Z" fill="black"/>
<path d="M668.683 219.24L608.368 279.556L609.416 280.605L669.732 220.289L668.683 219.24Z" fill="black"/>
<path d="M702.124 196.548L658.53 240.143L659.579 241.191L703.173 197.597L702.124 196.548Z" fill="black"/>
</g>
<path d="M974.855 609.23C974.035 609.23 973.372 608.567 973.372 607.747V199.07C973.372 198.251 974.035 197.586 974.855 197.586C975.675 197.586 976.338 198.251 976.338 199.07V607.747C976.338 608.567 975.674 609.23 974.855 609.23Z" fill="#263238"/>
<path d="M917.534 609.23C916.714 609.23 916.051 608.567 916.051 607.747V285.051C916.051 284.232 916.714 283.567 917.534 283.567C918.354 283.567 919.017 284.232 919.017 285.051V607.747C919.017 608.567 918.354 609.23 917.534 609.23Z" fill="#263238"/>
<path d="M999.27 609.23C998.45 609.23 997.787 608.568 997.787 607.747V373.156C997.787 372.335 998.45 371.672 999.27 371.672C1000.09 371.672 1000.75 372.335 1000.75 373.156V607.747C1000.75 608.568 1000.09 609.23 999.27 609.23Z" fill="#263238"/>
<path d="M964.239 609.231C963.419 609.231 962.756 608.568 962.756 607.747V458.076C962.756 457.256 963.419 456.593 964.239 456.593C965.059 456.593 965.722 457.256 965.722 458.076V607.747C965.722 608.568 965.059 609.231 964.239 609.231Z" fill="#263238"/>
<path d="M951.177 208.761L884.023 178.236L940.711 185.212L905.826 160.794L949.432 174.747L923.268 117.187L955.537 155.561C955.537 155.561 958.153 112.826 958.153 108.466C958.153 104.105 968.619 137.247 968.619 137.247L983.445 79.6863L986.061 132.886L998.27 122.421L996.526 155.562L1039.26 107.595L1015.71 164.283L1039.26 157.307L1024.43 182.599L1067.17 180.855L1031.41 201.787L1061.94 203.531L1017.46 214.868L1025.31 225.334L992.166 212.252L1006.99 232.311L976.466 213.124L945.069 229.694L951.177 208.761Z" fill="#1188F7"/>
<path d="M941.15 499.943L884.023 473.976L932.247 479.912L902.57 459.138L939.666 471.01L917.409 422.043L944.86 454.687C944.86 454.687 947.086 418.333 947.086 414.624C947.086 410.914 955.99 439.107 955.99 439.107L968.602 390.14L970.829 435.397L981.215 426.494L979.732 454.686L1016.09 413.881L996.054 462.105L1016.09 456.169L1003.47 477.684L1039.83 476.201L1009.41 494.006L1035.38 495.489L997.539 505.134L1004.22 514.038L976.024 502.91L988.637 519.974L962.67 503.651L935.961 517.747L941.15 499.943Z" fill="#1188F7"/>
<path d="M907.807 335.814L838.06 359.829L884.016 325.913L841.895 332.172L883.151 312.319L824.573 288.518L874.39 294.19C874.39 294.19 846.904 261.363 843.905 258.196C840.906 255.03 871.294 271.896 871.294 271.896L842.479 219.908L880.962 256.735L882.63 240.741L904.153 266.002L902.196 201.79L924.08 259.141L936.379 237.883L943.006 266.441L972.834 235.789L961.265 275.575L984.627 255.851L960.129 294.669L973.025 296.87L939.967 310.161L964.525 314.53L929.169 321.589L917.768 355.209L907.807 335.814Z" fill="#1188F7"/>
<path d="M977.162 388.783L929.482 349.634L973.785 367.499L950.862 340.243L983.089 360.924L974.362 308.77L992.16 346.738C992.16 346.738 1003.49 312.772 1004.43 309.248C1005.37 305.724 1006.68 334.761 1006.68 334.761L1031.08 291.448L1021.72 335L1033.84 329.177L1025.28 355.58L1070.16 326.039L1038.9 366.766L1059.44 366.207L1042 383.446L1076.91 391.254L1043.5 400.454L1067.79 408.447L1029.4 408.012L1033.49 418.161L1009.53 400.442L1017.18 419.848L996.657 397.76L967.713 404.378L977.162 388.783Z" fill="#1188F7"/>
<path d="M315.623 454.832H289.67V608.082H315.623V454.832Z" fill="#263238"/>
<path d="M315.623 608.825H289.67C289 608.825 288.457 608.493 288.457 608.084V454.831C288.457 454.421 289 454.089 289.67 454.089H315.623C316.293 454.089 316.836 454.421 316.836 454.831V608.082C316.836 608.493 316.293 608.825 315.623 608.825ZM290.883 607.342H314.409V455.572H290.883V607.342Z" fill="#263238"/>
<path d="M839.538 454.832H813.585V608.082H839.538V454.832Z" fill="#263238"/>
<path d="M839.538 608.825H813.585C812.915 608.825 812.372 608.493 812.372 608.084V454.831C812.372 454.421 812.915 454.089 813.585 454.089H839.538C840.207 454.089 840.751 454.421 840.751 454.831V608.082C840.751 608.493 840.207 608.825 839.538 608.825ZM814.798 607.342H838.324V455.572H814.798V607.342Z" fill="#263238"/>
<path d="M873.6 131.191H247.498V460.882H873.6V131.191Z" fill="white"/>
<path d="M873.6 461.624H247.498C246.828 461.624 246.284 461.291 246.284 460.882V131.191C246.284 130.781 246.828 130.449 247.498 130.449H873.6C874.27 130.449 874.813 130.781 874.813 131.191V460.882C874.813 461.291 874.27 461.624 873.6 461.624ZM248.711 460.14H872.387V131.932H248.711V460.14Z" fill="#263238"/>
<path d="M873.6 460.881H247.498V474.164H873.6V460.881Z" fill="#263238"/>
<path d="M873.6 474.907H247.498C246.828 474.907 246.284 474.575 246.284 474.165V460.882C246.284 460.473 246.828 460.141 247.498 460.141H873.6C874.27 460.141 874.813 460.473 874.813 460.882V474.165C874.813 474.575 874.27 474.907 873.6 474.907ZM248.711 473.424H872.387V461.624H248.711V473.424Z" fill="#263238"/>
<path d="M142.509 445.156C142.509 445.156 112.334 492.183 112.334 512.168C112.334 532.154 120.955 555.275 120.955 555.275L118.604 608.965H232.252C232.252 608.965 219.712 549.006 216.968 529.412C214.225 509.818 210.698 491.007 210.698 491.007L211.892 451.698L142.509 445.156Z" fill="#263238"/>
<path d="M232.25 609.707H118.603C118.401 609.707 118.207 609.624 118.068 609.478C117.928 609.331 117.854 609.134 117.863 608.934L120.208 555.393C119.483 553.399 111.592 531.242 111.592 512.169C111.592 492.193 140.647 446.682 141.884 444.754C142.036 444.523 142.306 444.401 142.578 444.416L211.961 450.958C212.351 450.995 212.645 451.329 212.633 451.721L211.442 490.948C211.694 492.306 215.079 510.562 217.703 529.308C220.411 548.653 232.852 608.212 232.976 608.811C233.022 609.03 232.967 609.257 232.827 609.431C232.684 609.607 232.473 609.707 232.25 609.707ZM119.377 608.223H231.337C229.765 600.673 218.763 547.605 216.231 529.516C213.522 510.162 210.002 491.332 209.966 491.143C209.956 491.091 209.952 491.038 209.953 490.985L211.126 452.373L142.888 445.938C140.033 450.453 113.072 493.57 113.072 512.17C113.072 531.79 121.562 554.788 121.646 555.019C121.681 555.113 121.697 555.212 121.692 555.31L119.377 608.223Z" fill="#263238"/>
<path d="M156.224 606.572C155.896 606.572 155.596 606.353 155.507 606.022L144.186 563.47L120.783 536.166C120.516 535.856 120.552 535.388 120.863 535.121C121.175 534.857 121.644 534.892 121.908 535.202L145.422 562.633C145.494 562.718 145.546 562.817 145.576 562.924L156.942 605.641C157.047 606.037 156.811 606.443 156.415 606.549C156.351 606.565 156.288 606.572 156.224 606.572Z" fill="white"/>
<path d="M136.897 313.115C136.897 313.115 126.916 337.638 127.201 354.748C127.486 371.856 141.174 432.878 141.459 435.73C141.744 438.583 137.752 445.141 139.462 448.277C141.174 451.414 157.142 459.397 181.094 458.257C205.047 457.116 210.463 455.405 211.89 451.698C213.315 447.992 215.027 441.718 214.742 436.3C214.458 430.882 214.173 377.844 211.89 369.004C209.609 360.164 187.937 333.076 187.937 333.076L150.012 311.119C150.012 311.119 140.032 307.697 136.897 313.115Z" fill="white"/>
<path d="M176.583 459.105C155.418 459.105 140.652 452.005 138.811 448.633C137.632 446.47 138.719 443.166 139.68 440.251C140.266 438.471 140.82 436.791 140.722 435.805C140.659 435.174 139.823 431.147 138.663 425.575C134.773 406.862 126.679 367.923 126.459 354.761C126.176 337.697 136.109 313.083 136.21 312.836C136.222 312.805 136.238 312.774 136.254 312.743C139.655 306.864 149.821 310.269 150.252 310.419L188.308 332.435C188.388 332.481 188.457 332.542 188.515 332.613C189.404 333.724 210.312 359.927 212.608 368.819C214.385 375.705 214.954 408.467 215.261 426.069C215.352 431.269 215.417 435.024 215.482 436.261C215.761 441.558 214.167 447.845 212.583 451.965C211.052 455.942 206.345 457.799 181.131 458.997C179.585 459.071 178.068 459.105 176.583 459.105ZM137.564 313.443C137.07 314.675 127.67 338.335 127.943 354.734C128.159 367.757 136.234 406.604 140.115 425.274C141.474 431.807 142.129 434.978 142.197 435.656C142.326 436.956 141.754 438.697 141.089 440.714C140.225 443.342 139.243 446.323 140.115 447.922C141.545 450.543 157.108 458.65 181.061 457.517C205.14 456.37 209.966 454.642 211.2 451.431C212.731 447.455 214.271 441.402 214.004 436.339C213.937 435.075 213.872 431.308 213.781 426.093C213.476 408.554 212.909 375.905 211.175 369.189C209.032 360.881 188.942 335.527 187.447 333.648L149.644 311.761C149.595 311.761 140.375 308.701 137.564 313.443Z" fill="#263238"/>
<path d="M222.726 235.554C222.726 235.554 236.699 247.531 235.557 256.656C234.417 265.78 229.283 262.929 223.296 280.323C217.308 297.717 212.744 305.13 215.881 313.97C219.018 322.809 222.155 324.52 222.155 324.52C222.155 324.52 216.168 331.934 202.766 327.656C189.364 323.379 182.805 317.676 182.805 314.539C182.805 311.402 187.083 309.121 187.083 309.121C187.083 309.121 195.067 313.114 198.488 310.833C201.91 308.552 209.324 303.418 214.456 291.728C219.589 280.036 223.865 264.068 223.296 261.503C222.726 258.937 212.46 241.257 212.46 241.257L222.726 235.554Z" fill="#263238"/>
<path d="M210.726 329.742C208.371 329.742 205.649 329.356 202.54 328.364C189.097 324.073 182.064 318.163 182.064 314.541C182.064 310.999 186.543 308.571 186.733 308.469C186.945 308.354 187.198 308.351 187.413 308.46C189.527 309.516 195.563 311.895 198.076 310.217C200.958 308.295 208.614 303.19 213.775 291.43C218.849 279.873 223.085 263.981 222.57 261.663C222.17 259.862 215.92 248.695 211.816 241.628C211.717 241.456 211.69 241.251 211.743 241.058C211.797 240.867 211.924 240.704 212.098 240.608L222.363 234.905C222.633 234.753 222.971 234.788 223.205 234.991C223.788 235.491 237.467 247.335 236.29 256.747C235.732 261.209 234.199 263.029 232.256 265.334C230.102 267.889 227.153 271.389 223.994 280.564C222.685 284.369 221.437 287.713 220.337 290.663C216.39 301.24 214.216 307.066 216.578 313.722C219.54 322.071 222.487 323.858 222.517 323.876C222.705 323.984 222.839 324.171 222.879 324.385C222.918 324.598 222.867 324.819 222.731 324.988C222.533 325.236 218.772 329.742 210.726 329.742ZM187.117 309.962C186.19 310.53 183.547 312.344 183.547 314.541C183.547 317.117 189.579 322.67 202.991 326.95C213.688 330.365 219.379 326.185 221.055 324.604C219.881 323.548 217.508 320.772 215.184 314.217C212.642 307.052 215.017 300.688 218.952 290.144C220.049 287.203 221.293 283.867 222.597 280.081C225.845 270.643 228.898 267.021 231.127 264.377C233.049 262.094 234.32 260.587 234.823 256.564C235.797 248.768 224.84 238.451 222.628 236.458L213.482 241.539C215.527 245.076 223.487 258.937 224.021 261.342C224.657 264.208 220.169 280.561 215.135 292.028C209.799 304.184 201.88 309.464 198.899 311.451C195.566 313.672 188.784 310.742 187.117 309.962Z" fill="#263238"/>
<path d="M189.648 308.838C189.648 308.838 187.652 311.119 185.371 316.822C183.09 322.525 182.805 326.231 182.805 326.231L153.72 307.982L163.129 288.306L189.648 308.838Z" fill="white"/>
<path d="M182.804 326.974C182.667 326.974 182.529 326.937 182.411 326.861L153.326 308.611C153.007 308.411 152.888 308.003 153.05 307.663L162.46 287.987C162.557 287.786 162.739 287.637 162.959 287.585C163.177 287.532 163.407 287.584 163.583 287.72L190.102 308.25C190.262 308.375 190.365 308.562 190.386 308.765C190.406 308.968 190.341 309.17 190.208 309.324C190.188 309.346 188.254 311.614 186.061 317.098C183.857 322.609 183.548 326.255 183.545 326.29C183.524 326.548 183.37 326.778 183.139 326.894C183.034 326.949 182.919 326.974 182.804 326.974ZM154.674 307.706L182.221 324.991C182.474 323.441 183.117 320.46 184.683 316.547C186.347 312.385 187.866 310.006 188.61 308.973L163.402 289.457L154.674 307.706Z" fill="#263238"/>
<path d="M160.279 304.562L190.789 325.092L189.364 336.782L150.012 311.119L160.279 304.562Z" fill="white"/>
<path d="M189.364 337.525C189.221 337.525 189.082 337.485 188.959 337.405L149.609 311.742C149.397 311.604 149.271 311.368 149.272 311.117C149.274 310.865 149.403 310.631 149.615 310.496L159.88 303.936C160.129 303.777 160.448 303.781 160.692 303.945L191.204 324.475C191.436 324.63 191.56 324.903 191.526 325.181L190.101 336.872C190.07 337.126 189.911 337.347 189.678 337.455C189.577 337.501 189.47 337.525 189.364 337.525ZM151.381 311.126L188.772 335.511L189.998 325.453L160.267 305.447L151.381 311.126Z" fill="#263238"/>
<path d="M213.316 239.262C213.316 239.262 227.288 260.648 227.002 264.641C226.717 268.633 221.869 282.32 220.444 288.594C219.018 294.868 212.175 302.567 206.186 308.554C200.198 314.542 197.916 316.538 194.494 316.538C191.072 316.538 183.373 311.691 178.526 308.268C173.679 304.847 163.413 291.16 163.413 291.16C163.413 291.16 171.112 258.367 175.959 252.379C180.809 246.39 213.316 239.262 213.316 239.262Z" fill="white"/>
<path d="M194.495 317.278C190.446 317.278 181.681 311.401 178.1 308.875C173.213 305.425 163.244 292.167 162.822 291.603C162.69 291.428 162.643 291.203 162.693 290.989C163.009 289.644 170.487 257.962 175.385 251.912C180.339 245.793 211.82 238.831 213.158 238.537C213.455 238.472 213.769 238.599 213.937 238.856C215.381 241.066 228.037 260.571 227.742 264.693C227.57 267.094 225.916 272.518 224.165 278.261C222.983 282.139 221.759 286.15 221.167 288.756C220.006 293.864 215.278 300.511 206.711 309.077C200.514 315.276 198.199 317.278 194.495 317.278ZM164.218 290.991C165.698 292.943 174.634 304.612 178.956 307.663C184.527 311.595 191.537 315.797 194.497 315.797C197.634 315.797 199.795 313.9 205.664 308.029C214.027 299.667 218.625 293.257 219.723 288.429C220.328 285.771 221.504 281.914 222.748 277.831C224.399 272.418 226.105 266.822 226.265 264.589C226.458 261.889 218.53 248.634 212.977 240.1C208.873 241.029 180.849 247.522 176.539 252.847C172.111 258.314 165.05 287.504 164.218 290.991Z" fill="#263238"/>
<path d="M225.292 234.985C225.292 234.985 218.733 240.972 204.191 247.817C189.648 254.66 179.383 258.653 175.96 268.918C172.539 279.183 166.836 301.71 167.692 306.558C168.547 311.405 171.969 313.117 171.969 313.117C171.969 313.117 169.117 318.535 153.434 319.96C137.751 321.385 123.208 313.972 121.212 300.57C119.216 287.169 124.064 272.055 129.196 263.215C134.329 254.376 142.883 244.68 149.156 233.559C155.43 222.438 175.96 212.173 195.921 216.165C215.881 220.156 228.429 229.567 225.292 234.985Z" fill="#263238"/>
<path d="M149.454 320.884C134.185 320.884 122.283 312.789 120.479 300.679C118.52 287.523 123.124 272.196 128.555 262.842C130.925 258.761 133.998 254.525 137.254 250.04C141.126 244.704 145.132 239.185 148.511 233.194C155.049 221.605 176.19 211.463 196.066 215.438C210.907 218.406 223.202 224.755 225.968 230.878C226.702 232.5 226.689 234.049 225.933 235.357C225.896 235.422 225.847 235.483 225.79 235.533C225.519 235.781 218.983 241.677 204.505 248.489C203.292 249.06 202.109 249.61 200.956 250.147C188.615 255.894 179.698 260.047 176.662 269.154C172.924 280.368 167.635 301.98 168.42 306.431C169.194 310.821 172.175 312.391 172.301 312.457C172.478 312.547 172.613 312.704 172.672 312.894C172.731 313.083 172.715 313.289 172.623 313.465C172.5 313.7 169.4 319.254 153.499 320.702C152.132 320.823 150.779 320.884 149.454 320.884ZM186.961 216.034C170.631 216.034 155.135 224.47 149.803 233.923C146.381 239.987 142.352 245.542 138.454 250.912C135.222 255.366 132.17 259.571 129.838 263.586C124.536 272.717 120.04 287.66 121.946 300.459C123.787 312.819 137.015 320.709 153.367 319.22C165.373 318.128 169.655 314.655 170.889 313.305C169.744 312.47 167.628 310.462 166.962 306.686C166.072 301.646 171.812 279.019 175.257 268.682C178.495 258.969 187.654 254.705 200.332 248.8C201.481 248.265 202.663 247.715 203.875 247.144C217.244 240.854 223.883 235.232 224.705 234.513C225.163 233.645 225.133 232.628 224.617 231.487C222.438 226.664 211.832 220.103 195.775 216.891C192.848 216.306 189.89 216.034 186.961 216.034Z" fill="#263238"/>
<path d="M198.126 270.28C197.804 271.963 196.563 273.141 195.353 272.909C194.142 272.678 193.423 271.125 193.745 269.442C194.067 267.758 195.308 266.581 196.518 266.812C197.727 267.042 198.447 268.595 198.126 270.28Z" fill="#263238"/>
<path d="M218.087 273.986C217.765 275.669 216.523 276.847 215.313 276.616C214.103 276.384 213.383 274.831 213.705 273.148C214.027 271.465 215.269 270.287 216.479 270.518C217.688 270.75 218.407 272.303 218.087 273.986Z" fill="#263238"/>
<path d="M191.074 261.675C190.946 261.675 190.816 261.64 190.697 261.572C190.344 261.363 190.228 260.909 190.436 260.556C190.478 260.488 194.625 253.72 204.27 259.146C204.627 259.347 204.753 259.798 204.553 260.156C204.351 260.512 203.899 260.639 203.543 260.439C195.15 255.717 191.851 261.08 191.713 261.31C191.575 261.544 191.327 261.675 191.074 261.675Z" fill="#263238"/>
<path d="M209.611 277.358C209.591 277.358 209.572 277.358 209.553 277.356C209.145 277.325 208.839 276.968 208.87 276.56C209.455 268.948 214.587 264.021 214.803 263.816C215.101 263.536 215.57 263.549 215.85 263.846C216.132 264.144 216.119 264.613 215.822 264.895C215.773 264.941 210.889 269.65 210.349 276.674C210.32 277.063 209.995 277.358 209.611 277.358Z" fill="#263238"/>
<path d="M223.58 267.092C223.232 267.092 222.92 266.845 222.852 266.49C222.548 264.89 221.976 263.905 221.152 263.562C219.898 263.04 218.314 264.101 218.297 264.113C217.958 264.341 217.499 264.257 217.268 263.918C217.037 263.58 217.123 263.121 217.459 262.889C217.551 262.827 219.712 261.366 221.713 262.189C223.032 262.732 223.905 264.085 224.31 266.211C224.387 266.613 224.123 267.002 223.721 267.079C223.674 267.088 223.626 267.092 223.58 267.092Z" fill="#263238"/>
<path d="M202.786 291.043C201.745 291.043 200.642 290.878 199.606 290.408C199.233 290.239 199.069 289.799 199.239 289.426C199.408 289.054 199.845 288.888 200.22 289.058C203.012 290.328 206.714 288.783 206.751 288.766C207.128 288.608 207.562 288.781 207.724 289.158C207.884 289.535 207.71 289.969 207.334 290.131C207.214 290.183 205.165 291.043 202.786 291.043Z" fill="#263238"/>
<path d="M197.917 297.604C197.843 297.604 197.766 297.592 197.692 297.569C190.326 295.212 186.83 287.228 186.687 286.888C186.525 286.512 186.7 286.077 187.075 285.915C187.45 285.754 187.886 285.927 188.05 286.304C188.082 286.381 191.433 294.008 198.144 296.157C198.534 296.281 198.749 296.698 198.625 297.088C198.524 297.403 198.232 297.604 197.917 297.604Z" fill="#263238"/>
<path d="M285.939 345.226C285.939 345.226 288.683 338.563 288.683 335.036C288.683 331.509 288.683 325.238 289.859 323.672C291.035 322.104 293.777 320.145 295.345 316.618C296.913 313.091 296.128 310.349 298.872 311.523C301.616 312.7 299.657 318.186 299.657 318.186L309.061 309.956C309.061 309.956 316.115 300.158 318.466 302.117C320.817 304.076 317.683 309.171 315.331 311.522C312.98 313.873 311.021 318.967 311.021 318.967C311.021 318.967 315.331 321.318 316.898 324.845C318.466 328.372 319.642 332.291 317.29 336.602C314.939 340.913 309.06 344.833 305.141 346.4C301.223 347.968 298.087 351.495 298.087 351.495L285.939 345.226Z" fill="white"/>
<path d="M298.087 352.238C297.972 352.238 297.856 352.212 297.748 352.155L285.599 345.884C285.258 345.708 285.108 345.299 285.254 344.943C285.28 344.877 287.941 338.374 287.941 335.035C287.941 329.952 288.043 324.855 289.266 323.226C289.653 322.71 290.164 322.186 290.759 321.58C292.039 320.273 293.632 318.646 294.667 316.314C295.149 315.23 295.394 314.235 295.609 313.358C295.919 312.098 296.164 311.104 297.012 310.68C297.746 310.315 298.592 310.594 299.163 310.839C301.175 311.702 301.23 314.183 300.935 316.079L308.508 309.45C309.296 308.363 314.368 301.52 317.416 301.134C318.004 301.059 318.529 301.202 318.939 301.545C319.611 302.106 319.989 302.914 320.034 303.881C320.16 306.677 317.603 310.294 315.853 312.044C314.094 313.803 312.523 317.28 311.945 318.655C313.219 319.45 316.258 321.584 317.573 324.543C319.238 328.287 320.434 332.382 317.938 336.956C315.316 341.763 309.013 345.647 305.414 347.086C301.711 348.569 298.67 351.952 298.639 351.986C298.497 352.151 298.294 352.238 298.087 352.238ZM286.876 344.876L297.93 350.582C298.915 349.569 301.607 347.018 304.866 345.714C308.965 344.075 314.484 340.201 316.639 336.25C318.827 332.241 317.731 328.546 316.221 325.15C314.776 321.9 310.706 319.644 310.665 319.62C310.338 319.442 310.195 319.051 310.328 318.704C310.411 318.489 312.372 313.433 314.807 311C316.721 309.087 318.644 305.929 318.555 303.954C318.53 303.397 318.346 302.985 317.992 302.69C317.929 302.637 317.827 302.576 317.605 302.61C315.73 302.847 311.739 307.509 309.664 310.391C309.631 310.437 309.592 310.48 309.549 310.515L300.145 318.745C299.891 318.968 299.519 318.993 299.24 318.8C298.96 318.61 298.844 318.257 298.957 317.938C299.403 316.684 300.29 312.94 298.58 312.208C297.915 311.923 297.709 311.992 297.675 312.012C297.441 312.129 297.233 312.971 297.051 313.714C296.833 314.606 296.56 315.715 296.024 316.92C294.879 319.496 293.183 321.228 291.82 322.621C291.262 323.19 290.781 323.681 290.454 324.119C289.427 325.489 289.427 332.181 289.427 335.038C289.424 338.055 287.569 343.099 286.876 344.876Z" fill="#263238"/>
<path d="M293.777 325.589C293.602 325.589 293.427 325.528 293.286 325.403C292.979 325.132 292.95 324.663 293.221 324.356L299.099 317.695C299.372 317.39 299.841 317.36 300.146 317.63C300.453 317.901 300.483 318.37 300.211 318.677L294.334 325.338C294.187 325.503 293.982 325.589 293.777 325.589Z" fill="#263238"/>
<path d="M147.21 335.82C147.21 335.82 140.156 367.563 144.86 373.834C149.563 380.103 222.062 427.915 226.763 424.779C231.466 421.644 265.56 398.914 278.885 382.455C292.21 365.997 298.088 351.496 298.088 351.496L284.371 342.482C284.371 342.482 260.074 363.253 249.101 371.481C238.129 379.711 233.426 382.062 233.426 382.062C233.426 382.062 197.373 348.752 188.358 340.915C179.345 333.076 170.332 326.807 159.751 328.374" fill="white"/>
<path d="M226.25 425.602C215.901 425.605 147.801 378.992 144.266 374.277C139.415 367.809 146.196 336.968 146.487 335.658C146.576 335.258 146.976 335.008 147.372 335.094C147.773 335.185 148.023 335.579 147.936 335.98C145.994 344.717 141.764 368.469 145.453 373.388C147.618 376.276 165.753 389.109 185.877 401.993C211.358 418.308 224.737 424.914 226.363 424.154C235.447 418.096 266.026 397.161 278.31 381.986C289.951 367.606 295.938 354.585 297.162 351.774L284.429 343.406C281.139 346.211 259.617 364.519 249.545 372.073C238.645 380.248 233.951 382.627 233.757 382.725C233.482 382.861 233.148 382.815 232.921 382.606C232.561 382.273 196.772 349.213 187.87 341.472C178.127 333.002 169.63 327.664 159.857 329.105C159.454 329.169 159.076 328.887 159.015 328.481C158.954 328.076 159.235 327.699 159.639 327.64C169.98 326.103 178.792 331.615 188.842 340.354C197.257 347.673 229.611 377.534 233.537 381.159C234.946 380.38 239.737 377.574 248.652 370.886C259.481 362.764 283.642 342.125 283.885 341.918C284.135 341.702 284.497 341.681 284.773 341.862L298.49 350.875C298.786 351.07 298.903 351.446 298.77 351.773C298.711 351.919 292.696 366.564 279.457 382.919C267.38 397.838 238.881 417.585 227.188 425.384C226.971 425.532 226.654 425.602 226.25 425.602Z" fill="#263238"/>
<path d="M167.037 392.646C156.498 392.646 141.784 390.657 141.625 390.636C141.218 390.581 140.935 390.208 140.99 389.801C141.045 389.395 141.414 389.1 141.825 389.166C141.997 389.19 159.135 391.523 169.522 391.118C169.924 391.133 170.275 391.424 170.29 391.832C170.305 392.241 169.986 392.585 169.577 392.601C168.767 392.631 167.916 392.646 167.037 392.646Z" fill="#263238"/>
<path d="M151.912 402.79C151.571 402.79 151.262 402.552 151.188 402.205C151.101 401.803 151.356 401.41 151.756 401.323C160.63 399.395 169.239 396.665 169.325 396.639C169.712 396.516 170.131 396.729 170.256 397.121C170.379 397.511 170.164 397.928 169.774 398.052C169.688 398.08 161.016 400.829 152.071 402.772C152.017 402.785 151.966 402.79 151.912 402.79Z" fill="#263238"/>
<path d="M290.249 363.209C290.086 363.209 289.921 363.156 289.785 363.046L275.677 351.682C275.358 351.424 275.308 350.958 275.564 350.64C275.821 350.321 276.288 350.27 276.607 350.527L290.715 361.891C291.034 362.149 291.084 362.615 290.827 362.934C290.681 363.114 290.467 363.209 290.249 363.209Z" fill="#263238"/>
<path d="M225.589 388.683C225.363 388.683 225.141 388.581 224.995 388.386C224.749 388.058 224.816 387.594 225.144 387.348L232.982 381.47C233.309 381.223 233.776 381.291 234.02 381.62C234.267 381.948 234.2 382.412 233.872 382.658L226.034 388.536C225.9 388.634 225.744 388.683 225.589 388.683Z" fill="#263238"/>
<path d="M229.255 604.254H96.874V608.563H229.255V604.254Z" fill="#E0E0E0"/>
<path d="M229.253 609.305H96.874C96.4647 609.305 96.1324 608.972 96.1324 608.563V604.256C96.1324 603.847 96.4647 603.514 96.874 603.514H229.253C229.662 603.514 229.995 603.847 229.995 604.256V608.563C229.995 608.972 229.664 609.305 229.253 609.305ZM97.6156 607.822H228.511V604.998H97.6156V607.822Z" fill="#263238"/>
<path d="M342.205 521.192H209.826L189.95 608.563H322.331L342.205 521.192Z" fill="#BFBFBF"/>
<path d="M322.331 609.305H189.95C189.725 609.305 189.511 609.203 189.37 609.025C189.23 608.85 189.176 608.618 189.227 608.397L209.103 521.027C209.18 520.689 209.479 520.45 209.825 520.45H342.205C342.431 520.45 342.644 520.552 342.785 520.729C342.926 520.904 342.98 521.136 342.929 521.356L323.053 608.727C322.976 609.066 322.676 609.305 322.331 609.305ZM190.879 607.822H321.738L341.275 521.934H210.417L190.879 607.822Z" fill="#263238"/>
</svg>
