<svg width="1224" height="377" viewBox="0 0 1224 377" fill="none" xmlns="http://www.w3.org/2000/svg">
<path d="M203.414 9.49967C220.679 9.49967 237.123 15.9973 249.714 27.795C262.247 39.5398 269.801 55.4095 270.981 72.4806C271.172 75.2361 272.552 77.7721 274.762 79.4279C276.421 80.6702 278.423 81.325 280.459 81.325C281.137 81.325 281.819 81.2526 282.493 81.1048C287.076 80.1004 291.785 79.5908 296.488 79.5908C313.854 79.5908 330.18 86.3523 342.458 98.6298C354.737 110.907 361.499 127.231 361.499 144.596C361.499 159.913 356.07 174.786 346.211 186.475C336.464 198.03 322.957 205.871 308.178 208.551C303.867 209.333 300.65 212.962 300.39 217.335C298.746 245.024 275.706 266.712 247.939 266.712C234.844 266.712 222.3 261.868 212.617 253.071C210.859 251.473 208.578 250.602 206.228 250.602C205.868 250.602 205.506 250.622 205.145 250.664C202.423 250.976 199.969 252.448 198.412 254.701C189.844 267.099 175.748 274.5 160.706 274.5C151.805 274.5 143.18 271.947 135.761 267.118C128.521 262.404 122.776 255.782 119.145 247.968C118.054 245.619 116.051 243.818 113.6 242.981C112.601 242.64 111.564 242.471 110.529 242.471C109.024 242.471 107.525 242.829 106.162 243.534C101.408 245.995 96.2622 247.242 90.868 247.242C82.4673 247.242 74.4433 244.108 68.2744 238.418C62.1383 232.758 58.3678 225.084 57.6573 216.808C57.3025 212.675 54.3071 209.251 50.258 208.348C38.8752 205.812 28.5318 199.394 21.1325 190.277C13.5229 180.901 9.50097 169.548 9.50097 157.446C9.50097 143.514 14.9266 130.417 24.7781 120.567C34.6296 110.716 47.7282 105.291 61.6607 105.291C64.5017 105.291 67.3635 105.525 70.1666 105.985C70.6861 106.071 71.2039 106.112 71.7156 106.112C75.885 106.112 79.6534 103.36 80.839 99.2355C83.1088 91.3399 87.9783 84.2254 94.5502 79.2024C101.329 74.0217 109.438 71.2835 117.998 71.2835C120.578 71.2835 123.158 71.5396 125.668 72.0444C126.29 72.1694 126.917 72.231 127.542 72.231C129.417 72.231 131.266 71.6754 132.846 70.6128C134.951 69.1962 136.402 66.9964 136.876 64.5039C142.93 32.6326 170.914 9.49967 203.414 9.49967ZM203.414 0C165.714 0 134.328 27.0109 127.542 62.7318C124.457 62.1115 121.266 61.7843 117.998 61.7843C96.0234 61.7843 77.4892 76.4983 71.7074 96.612C68.4387 96.0748 65.082 95.7916 61.6603 95.7916C27.6054 95.7916 0 123.395 0 157.446C0 186.872 20.6165 211.476 48.1912 217.621C50.0735 239.539 68.4598 256.742 90.868 256.742C97.9556 256.742 104.641 255.019 110.529 251.971C119.318 270.885 138.477 284 160.707 284C179.584 284 196.251 274.538 206.229 260.101C217.247 270.112 231.879 276.212 247.939 276.212C280.956 276.212 307.943 250.426 309.875 217.898C344.638 211.593 371 181.173 371 144.596C371 103.447 337.641 70.0912 296.489 70.0912C290.984 70.0912 285.624 70.6934 280.46 71.8254C277.684 31.6941 244.252 0 203.414 0Z" fill="white"/>
<g style="mix-blend-mode:hard-light">
<path d="M1024.97 125.697C1008.08 125.697 991.99 131.645 979.671 142.446C967.407 153.198 960.017 167.727 958.862 183.355C958.676 185.878 957.325 188.2 955.162 189.716C953.54 190.853 951.581 191.453 949.588 191.453C948.925 191.453 948.258 191.386 947.598 191.251C943.114 190.331 938.507 189.865 933.905 189.865C916.914 189.865 900.94 196.055 888.926 207.295C876.912 218.535 870.296 233.48 870.296 249.376C870.296 263.399 875.609 277.015 885.255 287.716C894.792 298.295 908.007 305.473 922.467 307.927C926.685 308.643 929.833 311.965 930.087 315.969C931.696 341.317 954.239 361.173 981.408 361.173C994.22 361.173 1006.49 356.738 1015.97 348.684C1017.69 347.222 1019.92 346.424 1022.22 346.424C1022.57 346.424 1022.93 346.443 1023.28 346.481C1025.94 346.767 1028.34 348.114 1029.87 350.177C1038.25 361.527 1052.04 368.303 1066.76 368.303C1075.47 368.303 1083.91 365.966 1091.17 361.544C1098.25 357.229 1103.87 351.167 1107.42 344.013C1108.49 341.863 1110.45 340.214 1112.85 339.447C1113.83 339.135 1114.84 338.98 1115.85 338.98C1117.33 338.98 1118.79 339.308 1120.13 339.954C1124.78 342.207 1129.81 343.349 1135.09 343.349C1143.31 343.349 1151.16 340.48 1157.2 335.27C1163.2 330.088 1166.89 323.063 1167.59 315.486C1167.93 311.703 1170.86 308.567 1174.83 307.741C1185.96 305.419 1196.08 299.544 1203.32 291.197C1210.77 282.614 1214.7 272.22 1214.7 261.14C1214.7 248.386 1209.4 236.396 1199.76 227.378C1190.12 218.36 1177.3 213.393 1163.67 213.393C1160.89 213.393 1158.09 213.607 1155.35 214.029C1154.84 214.107 1154.33 214.145 1153.83 214.145C1149.75 214.145 1146.06 211.625 1144.9 207.849C1142.68 200.621 1137.92 194.108 1131.49 189.509C1124.86 184.766 1116.92 182.26 1108.55 182.26C1106.02 182.26 1103.5 182.494 1101.04 182.956C1100.43 183.071 1099.82 183.127 1099.21 183.127C1097.37 183.127 1095.56 182.618 1094.02 181.645C1091.96 180.349 1090.54 178.335 1090.08 176.053C1084.15 146.875 1056.77 125.697 1024.97 125.697ZM1024.97 117C1061.86 117 1092.57 141.728 1099.21 174.431C1102.23 173.863 1105.35 173.563 1108.55 173.563C1130.05 173.563 1148.18 187.034 1153.84 205.448C1157.04 204.956 1160.32 204.697 1163.67 204.697C1196.99 204.697 1224 229.967 1224 261.141C1224 288.08 1203.83 310.605 1176.85 316.231C1175.01 336.296 1157.02 352.046 1135.09 352.046C1128.16 352.046 1121.62 350.468 1115.85 347.678C1107.26 364.994 1088.51 377 1066.76 377C1048.29 377 1031.98 368.337 1022.22 355.121C1011.44 364.285 997.121 369.87 981.407 369.87C949.103 369.87 922.697 346.264 920.807 316.485C886.794 310.712 861 282.863 861 249.376C861 211.705 893.64 181.168 933.905 181.168C939.29 181.168 944.535 181.719 949.588 182.756C952.304 146.016 985.015 117 1024.97 117Z" fill="white"/>
</g>
</svg>
