<svg width="641" height="385" viewBox="0 0 641 385" fill="none" xmlns="http://www.w3.org/2000/svg">
<path d="M64.1074 135.082C81.4633 125.333 100.369 117.617 117.432 108.631C146.718 93.2098 175.581 76.8685 203.41 58.9363C240.633 34.9499 278.067 16.2438 322.131 8.68222C371.172 0.266919 422.632 4.24737 469.522 21.0743C469.95 21.2267 470.378 21.3809 470.804 21.5379C507.996 35.0995 542.144 58.1009 566.203 89.8252C594.192 126.731 606.989 171.939 605.373 217.958C604.961 229.713 603.934 241.442 602.587 253.125C588.414 376.063 428.551 387.884 362.4 383.944C296.251 380.004 163.835 338.56 128.513 342.965C90.2559 347.735 48.0834 334.224 22.843 304.305C-7.29234 268.584 -4.19175 213.777 19.0957 175.308C29.9762 157.334 46.2185 145.129 64.1074 135.082Z" fill="#E1EDFA"/>
<path d="M557.68 21.3185H457.922V143.063H557.68V21.3185Z" stroke="#001E6C" stroke-miterlimit="10" stroke-linecap="round" stroke-linejoin="round"/>
<path d="M551.163 29.272H464.439V135.11H551.163V29.272Z" stroke="#001E6C" stroke-miterlimit="10" stroke-linecap="round" stroke-linejoin="round"/>
<path d="M523.176 63.428H492.427V100.954H523.176V63.428Z" stroke="#001E6C" stroke-miterlimit="10" stroke-linecap="round" stroke-linejoin="round"/>
<path d="M222.559 162.223V6.86914" stroke="#001E6C" stroke-miterlimit="10" stroke-linecap="round" stroke-linejoin="round"/>
<path d="M18.7573 247.955H222.559V169.182" stroke="#001E6C" stroke-miterlimit="10" stroke-linecap="round" stroke-linejoin="round"/>
<path d="M434.983 120.881V7.60901" stroke="#001E6C" stroke-miterlimit="10" stroke-linecap="round" stroke-linejoin="round"/>
<path d="M231.182 13.6376V247.955H434.984V126.203" stroke="#001E6C" stroke-miterlimit="10" stroke-linecap="round" stroke-linejoin="round"/>
<path d="M231.182 6.86914V9.54419" stroke="#001E6C" stroke-miterlimit="10" stroke-linecap="round" stroke-linejoin="round"/>
<path d="M105.435 346.532H90.5742V363.322H105.435V346.532Z" fill="white" stroke="#001E6C" stroke-miterlimit="10" stroke-linecap="round" stroke-linejoin="round"/>
<path d="M152.838 274.229H43.1719V348.244H152.838V274.229Z" fill="white" stroke="#001E6C" stroke-miterlimit="10" stroke-linecap="round" stroke-linejoin="round"/>
<path d="M149.515 277.423H46.4956V345.048H149.515V277.423Z" fill="#9EBEDF" stroke="#001E6C" stroke-miterlimit="10" stroke-linecap="round" stroke-linejoin="round"/>
<path d="M303.238 268.157H239.688C233.704 268.157 228.54 272.355 227.313 278.215L209.527 363.194H298.914L315.615 283.403C317.259 275.542 311.264 268.157 303.238 268.157Z" fill="#001E6C" stroke="#001E6C" stroke-miterlimit="10" stroke-linecap="round" stroke-linejoin="round"/>
<path d="M497.103 180.899C497.103 180.899 493.011 192.161 484.316 193.696C475.62 195.232 460.274 178.34 469.993 169.637C479.712 160.935 493.011 174.756 497.103 180.899Z" fill="#9EBEDF" stroke="#001E6C" stroke-miterlimit="10" stroke-linecap="round" stroke-linejoin="round"/>
<path d="M510.403 125.614C510.403 125.614 497.615 156.84 502.73 172.196C507.846 187.553 539.56 198.815 548.768 178.851C557.975 158.887 537.514 130.733 529.841 124.59C522.168 118.447 512.961 120.496 510.403 125.614Z" fill="#9EBEDF" stroke="#001E6C" stroke-miterlimit="10" stroke-linecap="round" stroke-linejoin="round"/>
<path d="M585.085 138.923C585.085 138.923 563.089 158.887 560.532 178.851C557.974 198.815 572.808 205.982 588.154 203.422C603.5 200.863 611.172 161.959 606.568 144.042C601.966 126.127 585.085 138.923 585.085 138.923Z" fill="#9EBEDF" stroke="#001E6C" stroke-miterlimit="10" stroke-linecap="round" stroke-linejoin="round"/>
<path d="M589.177 249.493C589.177 249.493 564.624 250.517 563.601 262.291C562.578 274.064 574.343 276.623 586.108 266.386C597.874 256.147 599.408 250.004 589.177 249.493Z" fill="#9EBEDF" stroke="#001E6C" stroke-miterlimit="10" stroke-linecap="round" stroke-linejoin="round"/>
<path d="M564.008 265.096C564.008 265.096 583.358 256.237 592.073 254.698" stroke="#001E6C" stroke-miterlimit="10" stroke-linecap="round" stroke-linejoin="round"/>
<path d="M594.651 326.531C594.651 326.531 576.615 309.828 567.55 317.401C558.485 324.975 564.965 335.129 580.515 336.262C596.065 337.394 601.501 334.153 594.651 326.531Z" fill="#9EBEDF" stroke="#001E6C" stroke-miterlimit="10" stroke-linecap="round" stroke-linejoin="round"/>
<path d="M565.849 319.668C565.849 319.668 585.769 327.156 593.003 332.255" stroke="#001E6C" stroke-miterlimit="10" stroke-linecap="round" stroke-linejoin="round"/>
<path d="M499.516 321.612C499.516 321.612 524.378 298.586 536.874 309.026C549.371 319.467 540.437 333.464 519.002 335.026C497.567 336.586 490.074 332.118 499.516 321.612Z" fill="#9EBEDF" stroke="#001E6C" stroke-miterlimit="10" stroke-linecap="round" stroke-linejoin="round"/>
<path d="M539.22 312.15C539.22 312.15 511.76 322.472 501.789 329.502" stroke="#001E6C" stroke-miterlimit="10" stroke-linecap="round" stroke-linejoin="round"/>
<path d="M528.306 274.063C528.306 274.063 525.748 286.349 516.541 290.955C507.334 295.563 490.965 285.837 499.66 270.992C508.357 256.147 523.703 267.921 528.306 274.063Z" fill="#9EBEDF" stroke="#001E6C" stroke-miterlimit="10" stroke-linecap="round" stroke-linejoin="round"/>
<path d="M506.823 235.672C506.823 235.672 502.219 225.434 484.316 232.089C466.412 238.743 459.252 248.981 470.505 252.565C481.757 256.148 506.823 235.672 506.823 235.672Z" fill="#9EBEDF" stroke="#001E6C" stroke-miterlimit="10" stroke-linecap="round" stroke-linejoin="round"/>
<path d="M503.395 235.205C503.395 235.205 484.429 237.257 474.178 245.977" stroke="#001E6C" stroke-miterlimit="10" stroke-linecap="round" stroke-linejoin="round"/>
<path d="M557.974 112.817C557.974 112.817 561.044 119.984 567.181 118.448C573.319 116.913 574.854 107.699 584.573 110.258C594.292 112.817 602.476 124.079 602.476 118.96C602.476 113.841 590.199 100.532 576.389 100.532C562.578 100.532 558.486 106.163 557.974 112.817Z" fill="#9EBEDF" stroke="#001E6C" stroke-miterlimit="10" stroke-linecap="round" stroke-linejoin="round"/>
<path d="M506.823 235.671C506.823 235.671 528.849 231.44 538.02 255.917C538.92 258.319 539.681 260.83 540.319 263.408" stroke="#001E6C" stroke-miterlimit="10" stroke-linecap="round" stroke-linejoin="round"/>
<path d="M598.745 211.96C598.745 211.96 603.349 201.722 621.253 208.377C639.156 215.031 646.317 225.27 635.063 228.853C623.81 232.436 598.745 211.96 598.745 211.96Z" fill="#9EBEDF" stroke="#001E6C" stroke-miterlimit="10" stroke-linecap="round" stroke-linejoin="round"/>
<path d="M602.836 212.635C602.836 212.635 621.289 211.609 630.003 222.382" stroke="#001E6C" stroke-miterlimit="10" stroke-linecap="round" stroke-linejoin="round"/>
<path d="M598.745 211.96C598.745 211.96 591.444 210.557 583.498 214.038" stroke="#001E6C" stroke-miterlimit="10" stroke-linecap="round" stroke-linejoin="round"/>
<path d="M518.564 193.596C507.768 182.564 497.103 180.898 497.103 180.898C497.103 180.898 481.353 176.727 475.202 182.37" stroke="#001E6C" stroke-miterlimit="10" stroke-linecap="round" stroke-linejoin="round"/>
<path d="M520.755 136.891L519.797 132.613" stroke="#001E6C" stroke-miterlimit="10" stroke-linecap="round" stroke-linejoin="round"/>
<path d="M545.663 363.194C545.663 363.194 547.957 275.039 545.663 248.267C543.37 221.496 532.669 190.135 532.669 190.135L521.769 141.423" stroke="#001E6C" stroke-miterlimit="10" stroke-linecap="round" stroke-linejoin="round"/>
<path d="M591.126 155.818L593.097 151.592" stroke="#001E6C" stroke-miterlimit="10" stroke-linecap="round" stroke-linejoin="round"/>
<path d="M551.013 363.096C551.013 363.096 551.777 282.688 554.835 259.741C557.892 236.794 570.121 200.844 570.121 200.844L588.889 160.611" stroke="#001E6C" stroke-miterlimit="10" stroke-linecap="round" stroke-linejoin="round"/>
<path d="M564.007 265.096C564.007 265.096 558.656 311.195 555.6 363.208" stroke="#001E6C" stroke-miterlimit="10" stroke-linecap="round" stroke-linejoin="round"/>
<path d="M538.02 363.096C538.02 363.096 539.549 289.572 536.492 279.629C533.434 269.685 528.306 274.064 528.306 274.064C528.306 274.064 514.159 275.729 509.033 283.937" stroke="#001E6C" stroke-miterlimit="10" stroke-linecap="round" stroke-linejoin="round"/>
<path d="M541.532 269.135C545.53 291.558 541.842 363.173 541.842 363.173" stroke="#001E6C" stroke-miterlimit="10" stroke-linecap="round" stroke-linejoin="round"/>
<path d="M579.165 216.443C574.738 219.475 570.484 224.369 567.547 232.205C558.376 256.682 559.421 363.207 559.421 363.207" stroke="#001E6C" stroke-miterlimit="10" stroke-linecap="round" stroke-linejoin="round"/>
<path d="M521.226 196.514C526.004 202.129 530.637 209.721 534.199 219.966C546.428 255.151 551.014 346.268 548.721 363.096" stroke="#001E6C" stroke-miterlimit="10" stroke-linecap="round" stroke-linejoin="round"/>
<path d="M552.285 229.443C551.541 273.849 551.013 363.097 551.013 363.097" stroke="#001E6C" stroke-miterlimit="10" stroke-linecap="round" stroke-linejoin="round"/>
<path d="M552.379 223.917C552.884 194.554 553.477 165.817 554.072 150.362C555.6 110.588 557.975 112.817 557.975 112.817C557.975 112.817 560.805 103.887 576.695 104.913" stroke="#001E6C" stroke-miterlimit="10" stroke-linecap="round" stroke-linejoin="round"/>
<path d="M532.804 257.449C532.804 257.449 520.016 246.038 525.132 240.425C530.247 234.812 561.962 230.697 571.169 237.993C580.376 245.289 559.915 255.579 552.243 257.824C544.57 260.069 535.363 259.32 532.804 257.449Z" fill="#9EBEDF" stroke="#001E6C" stroke-miterlimit="10" stroke-linecap="round" stroke-linejoin="round"/>
<path d="M544.614 248.105C544.435 249.261 544.33 250.409 544.33 251.512" stroke="#001E6C" stroke-miterlimit="10" stroke-linecap="round" stroke-linejoin="round"/>
<path d="M549.012 234.783C549.012 234.783 547.109 238.592 545.729 243.26" stroke="#001E6C" stroke-miterlimit="10" stroke-linecap="round" stroke-linejoin="round"/>
<path d="M532.804 332.065C532.804 332.065 520.016 320.653 525.132 315.041C530.247 309.428 561.962 305.313 571.169 312.609C580.376 319.905 559.915 330.195 552.243 332.44C544.57 334.685 535.363 333.936 532.804 332.065Z" fill="#9EBEDF" stroke="#001E6C" stroke-miterlimit="10" stroke-linecap="round" stroke-linejoin="round"/>
<path d="M549.012 309.399C549.012 309.399 544.331 318.768 544.331 326.128" stroke="#001E6C" stroke-miterlimit="10" stroke-linecap="round" stroke-linejoin="round"/>
<path d="M542.324 300.509C542.324 300.509 533.642 292.761 537.115 288.95C540.588 285.14 562.121 282.345 568.372 287.299C574.624 292.252 560.732 299.239 555.522 300.763C550.313 302.287 544.061 301.779 542.324 300.509Z" fill="#9EBEDF" stroke="#001E6C" stroke-miterlimit="10" stroke-linecap="round" stroke-linejoin="round"/>
<path d="M553.329 285.119C553.329 285.119 550.15 291.479 550.15 296.478" stroke="#001E6C" stroke-miterlimit="10" stroke-linecap="round" stroke-linejoin="round"/>
<path d="M180.784 299.965C180.784 299.965 170.087 316.713 170.451 317.441C170.816 318.168 177.728 326.36 178.273 326.724C178.818 327.089 182.092 326.906 182.092 326.906L187.55 322.355C187.55 322.355 187.55 321.263 187.004 320.353C186.458 319.443 184.821 319.261 184.821 319.261C184.821 319.261 187.732 312.162 187.55 310.342C187.368 308.521 187.022 303.044 187.022 303.044L180.784 299.965Z" fill="white" stroke="#001E6C" stroke-miterlimit="10" stroke-linecap="round" stroke-linejoin="round"/>
<path d="M184.822 319.261L181.184 323.083" stroke="#001E6C" stroke-miterlimit="10" stroke-linecap="round" stroke-linejoin="round"/>
<path d="M182.746 204.329C182.746 204.329 217.95 264.697 217.95 265.518C217.95 266.34 187.021 303.043 187.021 303.043L180.783 299.965L194.411 263.053L176.62 250.727L182.746 204.329Z" fill="white" stroke="#001E6C" stroke-miterlimit="10" stroke-linecap="round" stroke-linejoin="round"/>
<path d="M181.161 233.007L189.377 259.474L179.621 253.05L181.161 233.007Z" fill="#001E6C" stroke="#001E6C" stroke-miterlimit="10" stroke-linecap="round" stroke-linejoin="round"/>
<path d="M209.654 260.144L194.411 263.054L202.631 257.606" stroke="#001E6C" stroke-miterlimit="10" stroke-linecap="round" stroke-linejoin="round"/>
<path d="M182.344 295.671L190.537 298.599" stroke="#001E6C" stroke-miterlimit="10" stroke-linecap="round" stroke-linejoin="round"/>
<path d="M181.885 226.956L177.578 266.175L178.439 313.152H104.005L102.714 291.602C102.714 291.602 78.5959 217.259 78.8115 214.673C79.0271 212.087 119.008 192.478 119.008 192.478L152.816 191.4L182.747 204.329L182.963 214.888" fill="white"/>
<path d="M181.885 226.956L177.578 266.175L178.439 313.152H104.005L102.714 291.602C102.714 291.602 78.5959 217.259 78.8115 214.673C79.0271 212.087 119.008 192.478 119.008 192.478L152.816 191.4L182.747 204.329L182.963 214.888" stroke="#001E6C" stroke-miterlimit="10" stroke-linecap="round" stroke-linejoin="round"/>
<path d="M136.333 204.615L143.285 213.035L138.528 305.307L147.31 315.56L158.286 304.209L147.676 213.402L150.237 200.953L146.212 190.701L128.283 192.165L136.333 204.615Z" fill="#FCB239" stroke="#001E6C" stroke-miterlimit="10" stroke-linecap="round" stroke-linejoin="round"/>
<path d="M117.285 161.447L121.807 183.643L139.033 198.296L150.446 188.814L150.016 177.609H145.063L123.529 166.834L117.285 161.447Z" fill="white" stroke="#001E6C" stroke-miterlimit="10" stroke-linecap="round" stroke-linejoin="round"/>
<path d="M142.91 194.632L146.57 211.009L156.691 194.848L150.231 184.289L150.446 188.814L142.91 194.632Z" fill="white" stroke="#001E6C" stroke-miterlimit="10" stroke-linecap="round" stroke-linejoin="round"/>
<path d="M121.807 183.643L116.208 193.555L137.742 212.087L139.679 196.356L121.807 183.643Z" fill="white" stroke="#001E6C" stroke-miterlimit="10" stroke-linecap="round" stroke-linejoin="round"/>
<path d="M115.046 155.288C115.046 155.288 112.724 150.103 110.402 152.606C108.079 155.11 110.759 161.903 113.796 163.69C116.833 165.478 118.798 164.584 118.798 164.584C118.798 164.584 123.979 173.166 125.051 173.881C126.122 174.596 142.201 181.926 144.345 182.641C146.489 183.357 153.635 180.854 155.064 178.887C156.493 176.92 155.421 157.433 155.064 151.712C154.707 145.991 150.776 123.465 150.062 122.214C149.347 120.963 150.776 107.733 147.382 107.733C143.988 107.733 140.772 109.52 140.772 109.52C140.772 109.52 142.916 105.587 140.414 106.838C137.913 108.09 133.983 110.95 119.691 116.314C105.399 121.677 110.044 130.437 110.401 131.332C110.759 132.226 115.046 155.288 115.046 155.288Z" fill="white" stroke="#001E6C" stroke-miterlimit="10" stroke-linecap="round" stroke-linejoin="round"/>
<path d="M115.046 155.288C115.046 155.288 114.919 155.008 114.701 154.616L115.046 155.288Z" stroke="#001E6C" stroke-miterlimit="10" stroke-linecap="round" stroke-linejoin="round"/>
<path d="M149.944 121.797C149.52 119.223 150.546 107.733 147.382 107.733C143.988 107.733 140.772 109.52 140.772 109.52C140.772 109.52 142.916 105.587 140.414 106.838C137.913 108.09 133.983 110.95 119.691 116.314C105.399 121.677 110.044 130.437 110.401 131.332C110.758 132.226 115.046 155.288 115.046 155.288L118.262 154.215C118.262 154.215 115.761 146.706 117.011 145.454C118.262 144.203 120.584 142.773 120.584 142.058C120.584 141.342 117.547 134.549 119.334 132.582C120.878 130.884 143.756 123.714 149.944 121.797Z" fill="#001E6C" stroke="#001E6C" stroke-miterlimit="10" stroke-linecap="round" stroke-linejoin="round"/>
<path d="M145.416 141.522L148.454 161.903L143.63 160.652" stroke="#001E6C" stroke-miterlimit="10" stroke-linecap="round" stroke-linejoin="round"/>
<path d="M138.628 142.953C138.628 142.953 132.197 142.058 128.624 144.204" stroke="#001E6C" stroke-width="2" stroke-miterlimit="10" stroke-linecap="round" stroke-linejoin="round"/>
<path d="M146.667 137.053C146.667 137.053 147.382 131.153 151.849 133.119" stroke="#001E6C" stroke-width="2" stroke-miterlimit="10" stroke-linecap="round" stroke-linejoin="round"/>
<path d="M133.984 165.121C133.984 165.121 138.807 167.088 142.38 167.267" stroke="#001E6C" stroke-miterlimit="10" stroke-linecap="round" stroke-linejoin="round"/>
<path d="M137.199 148.674C137.199 149.859 136.639 150.819 135.949 150.819C135.258 150.819 134.698 149.859 134.698 148.674C134.698 147.488 135.258 146.528 135.949 146.528C136.639 146.528 137.199 147.488 137.199 148.674Z" fill="#001E6C" stroke="#001E6C" stroke-miterlimit="10" stroke-linecap="round" stroke-linejoin="round"/>
<path d="M152.563 144.204C152.563 145.389 152.003 146.349 151.312 146.349C150.622 146.349 150.062 145.389 150.062 144.204C150.062 143.019 150.622 142.058 151.312 142.058C152.003 142.058 152.563 143.019 152.563 144.204Z" fill="#001E6C" stroke="#001E6C" stroke-miterlimit="10" stroke-linecap="round" stroke-linejoin="round"/>
<path d="M138.325 184.787C138.325 184.787 135.824 180.496 136.539 180.317C137.254 180.138 146.186 177.457 146.008 176.026C145.829 174.596 143.149 173.345 141.006 173.881C138.862 174.417 127.964 176.562 128.322 178.172C128.679 179.781 132.073 189.435 133.324 191.759C134.574 194.083 136.003 213.749 136.003 213.749H145.114L145.471 208.028C145.471 208.028 150.117 207.134 150.652 205.882C151.188 204.631 150.831 200.877 150.831 200.877C150.831 200.877 154.94 200.161 154.94 199.267C154.94 198.373 156.19 190.329 154.94 189.256C153.69 188.182 144.935 182.64 143.327 182.64C141.72 182.641 138.325 184.787 138.325 184.787Z" fill="white" stroke="#001E6C" stroke-miterlimit="10" stroke-linecap="round" stroke-linejoin="round"/>
<path d="M150.831 200.877L151.01 197.301L152.617 196.408" stroke="#001E6C" stroke-miterlimit="10" stroke-linecap="round" stroke-linejoin="round"/>
<path d="M138.325 184.787L134.574 187.289" stroke="#001E6C" stroke-miterlimit="10" stroke-linecap="round" stroke-linejoin="round"/>
<path d="M114.683 216.181L134.278 249.367L136.003 213.75H145.114C145.114 213.75 150.859 250.445 152.15 259.495C153.443 268.546 153.227 277.812 151.935 279.751C150.643 281.691 144.902 288.107 142.749 288.107C140.596 288.107 134.062 284.493 132.985 282.769C132.433 281.884 119.017 274.461 107.58 262.618C96.7352 251.388 85.5327 235.11 85.5327 235.11" fill="white"/>
<path d="M114.683 216.181L134.278 249.367L136.003 213.75H145.114C145.114 213.75 150.859 250.445 152.15 259.495C153.443 268.546 153.227 277.812 151.935 279.751C150.643 281.691 144.902 288.107 142.749 288.107C140.596 288.107 134.062 284.493 132.985 282.769C132.433 281.884 119.017 274.461 107.58 262.618C96.7352 251.388 85.5327 235.11 85.5327 235.11" stroke="#001E6C" stroke-miterlimit="10" stroke-linecap="round" stroke-linejoin="round"/>
<path d="M134.278 249.366L131.909 270.485" stroke="#001E6C" stroke-miterlimit="10" stroke-linecap="round" stroke-linejoin="round"/>
<path d="M135.57 218.983H145.26" stroke="#001E6C" stroke-miterlimit="10" stroke-linecap="round" stroke-linejoin="round"/>
<path d="M104.005 313.152V363.194H179.789L178.44 313.152H104.005Z" fill="#001E6C" stroke="#001E6C" stroke-miterlimit="10" stroke-linecap="round" stroke-linejoin="round"/>
<path d="M326.458 125.611C326.458 125.611 315.255 128.629 312.239 135.959C309.223 143.289 311.378 144.799 312.023 144.583C312.669 144.367 314.178 141.565 314.178 141.565C314.178 141.565 311.809 148.249 314.825 151.051C317.841 153.854 322.797 157.734 322.797 157.734C322.797 157.734 322.15 166.358 319.565 171.748C316.98 177.138 313.317 183.175 315.256 185.547C317.195 187.918 319.565 184.469 319.565 184.469C319.565 184.469 321.72 189.859 329.259 191.799C336.8 193.74 352.514 196.451 358.977 195.589C365.441 194.727 369.762 190.937 369.762 190.937C369.762 190.937 367.823 194.603 371.27 192.447C374.718 190.29 376.872 187.488 380.319 179.727C383.766 171.965 385.92 159.677 384.196 150.19C382.473 140.703 374.071 132.727 368.47 128.199C362.868 123.672 351.45 119.36 341.108 120.438C330.766 121.515 326.458 125.611 326.458 125.611Z" fill="#001E6C" stroke="#001E6C" stroke-miterlimit="10" stroke-linecap="round" stroke-linejoin="round"/>
<path d="M380.632 210.675L383.46 246.238L368.519 273.907L362.277 261.188L380.632 210.675Z" fill="#FCB239" stroke="#001E6C" stroke-miterlimit="10" stroke-linecap="round" stroke-linejoin="round"/>
<path d="M370.197 240.497L365.87 268.269L362.14 262.147L370.197 240.497Z" fill="#001E6C" stroke="#001E6C" stroke-miterlimit="10" stroke-linecap="round" stroke-linejoin="round"/>
<path d="M284.247 363.194L287.307 328.894L377.278 332.569L378.809 362.581L284.247 363.194Z" fill="#001E6C" stroke="#001E6C" stroke-miterlimit="10" stroke-linecap="round" stroke-linejoin="round"/>
<path d="M331.594 137.863C331.594 137.863 330.199 147.04 331.793 148.635C333.388 150.231 341.362 154.021 341.362 154.021C341.362 154.021 340.366 143.847 340.366 143.248C340.366 142.65 345.948 157.013 348.738 158.808C351.529 160.604 356.712 164.993 356.712 164.993C356.712 164.993 357.509 167.387 358.306 167.187C359.103 166.987 360.898 165.192 360.898 165.192C360.898 165.192 366.679 163.597 366.081 168.185C365.482 172.773 361.496 178.957 359.103 179.356C356.711 179.755 354.918 179.555 354.918 179.555C354.918 179.555 351.728 189.131 351.329 192.322C350.93 195.514 350.731 196.112 351.13 197.309C351.529 198.506 360.699 202.895 362.692 203.494C364.685 204.092 380.632 210.675 380.632 210.675L361.695 263.738L381.23 333.758C381.23 333.758 351.927 340.54 324.019 337.947C296.111 335.353 284.55 329.369 284.55 329.369L308.271 262.142L299.7 204.491L331.195 198.706L331.793 191.524C331.793 191.524 324.019 189.33 321.428 183.744C318.74 177.951 321.228 167.785 321.428 164.793C321.627 161.8 321.827 157.611 321.428 154.22C321.028 150.829 322.624 140.256 331.594 137.863Z" fill="#FCB239" stroke="#001E6C" stroke-miterlimit="10" stroke-linecap="round" stroke-linejoin="round"/>
<path d="M317.539 254.449C317.539 254.449 339.149 267.424 340.013 267.712" stroke="#001E6C" stroke-miterlimit="10" stroke-linecap="round" stroke-linejoin="round"/>
<path d="M326.183 262.811L341.453 273.191" stroke="#001E6C" stroke-miterlimit="10" stroke-linecap="round" stroke-linejoin="round"/>
<path d="M359.107 201.988C355.737 200.418 351.401 198.124 351.13 197.31C350.732 196.113 350.931 195.515 351.329 192.323C351.728 189.131 354.918 179.556 354.918 179.556C354.918 179.556 356.712 179.755 359.103 179.357C361.496 178.957 365.482 172.774 366.081 168.186C366.679 163.598 360.898 165.193 360.898 165.193C360.898 165.193 359.103 166.989 358.306 167.188C357.509 167.387 356.712 164.994 356.712 164.994C356.712 164.994 351.529 160.605 348.738 158.809C345.948 157.014 340.366 142.651 340.366 143.249C340.366 143.848 341.362 154.021 341.362 154.021C341.362 154.021 333.389 150.231 331.793 148.635C330.199 147.04 331.594 137.863 331.594 137.863C322.624 140.257 321.029 150.83 321.428 154.221C321.826 157.612 321.627 161.802 321.428 164.794C321.228 167.785 318.74 177.952 321.428 183.745C324.019 189.331 331.793 191.525 331.793 191.525L331.195 198.706L322.389 200.324L318.287 223.873L350.836 226.182L359.107 201.988Z" fill="white" stroke="#001E6C" stroke-miterlimit="10" stroke-linecap="round" stroke-linejoin="round"/>
<path d="M331.196 198.706L330.927 204.897" stroke="#001E6C" stroke-miterlimit="10" stroke-linecap="round" stroke-linejoin="round"/>
<path d="M351.276 185.241C351.276 185.241 346.876 189.424 339.836 190.085" stroke="#001E6C" stroke-miterlimit="10" stroke-linecap="round" stroke-linejoin="round"/>
<path d="M329.8 176.563C329.8 176.563 335.979 178.958 340.963 173.771" stroke="#001E6C" stroke-miterlimit="10" stroke-linecap="round" stroke-linejoin="round"/>
<path d="M332.195 155.435C332.195 155.435 332.437 156.161 332.195 158.822C331.953 161.484 327.167 168.52 328.617 169.246C330.069 169.972 331.324 169.665 334.225 169.906" stroke="#001E6C" stroke-miterlimit="10" stroke-linecap="round" stroke-linejoin="round"/>
<path d="M328.827 159.352C328.827 160.602 328.2 161.616 327.426 161.616C326.652 161.616 326.025 160.602 326.025 159.352C326.025 158.101 326.652 157.088 327.426 157.088C328.2 157.088 328.827 158.101 328.827 159.352Z" fill="#001E6C"/>
<path d="M342.184 160.753C342.184 162.003 341.556 163.016 340.783 163.016C340.01 163.016 339.382 162.003 339.382 160.753C339.382 159.502 340.01 158.489 340.783 158.489C341.557 158.489 342.184 159.502 342.184 160.753Z" fill="#001E6C"/>
<path d="M324.949 154.285C324.949 154.285 328.181 151.914 330.766 153.208" stroke="#001E6C" stroke-miterlimit="10" stroke-linecap="round" stroke-linejoin="round"/>
<path d="M339.168 153.854C339.168 153.854 343.908 153.207 345.631 157.088" stroke="#001E6C" stroke-miterlimit="10" stroke-linecap="round" stroke-linejoin="round"/>
<path d="M299.7 204.492L295.989 230.286L284.678 253.824L262.159 220.026C262.159 220.026 261.39 214.64 260.109 212.588C258.827 210.537 254.47 209.51 251.908 207.716C249.345 205.92 247.55 200.278 245.5 202.33C243.45 204.381 244.731 207.973 245.5 208.998C246.269 210.024 252.164 214.897 252.164 214.897L237.811 219.514C237.811 219.514 226.534 214.128 225.509 216.18C224.484 218.231 233.71 227.978 237.298 229.004C240.886 230.029 255.238 227.722 255.238 227.722C255.238 227.722 271.385 267.219 274.973 271.58C278.561 275.94 283.174 281.326 284.2 281.069C285.225 280.813 307.414 257.422 307.414 257.422L299.7 204.492Z" fill="white" stroke="#001E6C" stroke-miterlimit="10" stroke-linecap="round" stroke-linejoin="round"/>
<path d="M257.028 223.476C257.028 223.476 253.238 220.798 251.899 220.798C250.562 220.798 237.183 223.03 237.183 223.03C237.183 223.03 230.271 219.237 228.932 219.906" stroke="#001E6C" stroke-miterlimit="10" stroke-linecap="round" stroke-linejoin="round"/>
<path d="M295.144 270.423C301.31 264.165 307.413 257.42 307.413 257.42L299.7 204.491L295.989 230.285L284.678 253.823L295.144 270.423Z" fill="#FCB239" stroke="#001E6C" stroke-miterlimit="10" stroke-linecap="round" stroke-linejoin="round"/>
<path d="M385.243 236.419C385.243 236.419 385.912 225.038 388.364 223.253C390.817 221.467 398.845 219.013 399.737 217.451C400.628 215.889 401.967 216.559 401.744 218.566C401.521 220.575 399.068 223.476 398.399 223.699C397.73 223.922 394.385 225.931 394.385 225.931C394.385 225.931 397.061 228.162 397.73 228.385C398.398 228.608 407.095 230.394 407.095 230.394C407.095 230.394 415.791 223.253 415.791 225.038C415.791 226.824 409.993 237.757 409.325 239.097C408.656 240.435 403.75 240.882 401.743 241.105C399.736 241.328 390.148 242.22 390.148 242.22C390.148 242.22 387.695 267.436 387.472 273.238C387.249 279.04 383.459 284.395 381.451 285.734C379.444 287.072 368.295 277.477 368.518 273.907C368.741 270.337 382.566 241.997 382.566 241.997L385.243 236.419Z" fill="white" stroke="#001E6C" stroke-miterlimit="10" stroke-linecap="round" stroke-linejoin="round"/>
<path d="M388.044 238.335C388.044 238.335 390.148 233.964 393.27 234.634C396.391 235.303 405.757 236.42 405.757 236.42C405.757 236.42 409.993 230.841 411.778 230.618" stroke="#001E6C" stroke-miterlimit="10" stroke-linecap="round" stroke-linejoin="round"/>
<path d="M520.818 268.157H457.267C451.284 268.157 446.119 272.355 444.893 278.215L427.106 363.194H516.493L533.194 283.403C534.839 275.542 528.844 268.157 520.818 268.157Z" fill="#001E6C" stroke="#001E6C" stroke-miterlimit="10" stroke-linecap="round" stroke-linejoin="round"/>
<path d="M444.955 264.926L404.27 284.212L392.591 336.419C392.591 336.419 387.53 336.614 387.334 337.978C387.14 339.342 387.529 342.069 387.529 342.069C387.529 342.069 384.024 342.263 383.636 345.38C383.247 348.496 383.636 351.809 384.22 353.366C384.804 354.925 390.644 362.132 392.396 362.327C394.148 362.522 396.289 362.912 396.874 363.106C397.458 363.301 496.735 363.106 496.735 363.106C496.735 363.106 500.629 362.717 501.602 361.938C502.575 361.158 502.77 359.405 502.77 359.405C502.77 359.405 505.495 357.262 505.69 355.898C505.884 354.535 504.716 346.158 504.716 344.405C504.716 342.652 511.724 291.808 512.114 288.301C512.503 284.795 511.335 283.431 510.361 282.457C509.388 281.483 498.682 275.249 494.01 273.301C489.338 271.353 473.301 264.242 473.301 264.242L444.955 264.926Z" fill="white" stroke="#001E6C" stroke-miterlimit="10" stroke-linecap="round" stroke-linejoin="round"/>
<path d="M449.238 299.688C450.24 299.187 472.13 273.486 478.347 266.173C475.424 264.883 472.395 264.031 472.395 264.031L444.955 264.623L436.911 268.768C439.001 275.41 445.252 292.445 446.512 295.597C448.07 299.493 448.07 300.272 449.238 299.688Z" fill="#FCB239" stroke="#001E6C" stroke-miterlimit="10" stroke-linecap="round" stroke-linejoin="round"/>
<path d="M440.654 206.956C440.654 206.956 433.164 215.888 433.164 219.237C433.164 222.585 434.598 226.254 433.005 228.168C431.411 230.082 422.487 234.228 424.24 236.461C425.993 238.694 428.703 240.448 428.703 240.448L428.383 245.551C428.383 245.551 431.571 257.991 433.324 258.629C435.077 259.267 440.655 259.107 440.655 259.107C440.655 259.107 447.667 287.017 449.42 287.336C451.174 287.655 472.396 264.03 472.396 264.03L471.573 254.641C471.573 254.641 479.86 241.085 482.091 234.865C484.322 228.645 479.86 215.726 473.486 209.825C467.111 203.924 454.203 202.968 449.421 203.446C444.639 203.926 440.654 206.956 440.654 206.956Z" fill="white" stroke="#001E6C" stroke-miterlimit="10" stroke-linecap="round" stroke-linejoin="round"/>
<path d="M436.067 220.536C436.067 220.536 440.177 219.237 443.045 221.789" stroke="#001E6C" stroke-width="2" stroke-miterlimit="10" stroke-linecap="round" stroke-linejoin="round"/>
<path d="M440.599 228.196C440.215 229.368 439.43 230.163 438.844 229.97C438.258 229.778 438.095 228.672 438.478 227.5C438.863 226.329 439.648 225.535 440.234 225.727C440.82 225.919 440.983 227.025 440.599 228.196Z" fill="#001E6C" stroke="#001E6C" stroke-miterlimit="10" stroke-linecap="round" stroke-linejoin="round"/>
<path d="M441.771 199.46C441.771 199.46 427.109 202.012 430.615 204.883C434.121 207.753 453.405 212.857 457.549 214.292C461.692 215.728 450.537 218.279 452.13 219.555C453.724 220.831 456.911 226.892 456.911 226.892C456.911 226.892 456.274 234.866 454.202 239.172C452.13 243.478 442.409 249.219 442.409 249.219C442.409 249.219 437.31 242.362 434.6 242.362C431.891 242.362 428.066 243 428.385 245.552C428.704 248.104 429.82 254.961 429.978 255.599C430.138 256.237 428.066 262.617 430.298 264.052C432.529 265.488 444.003 260.862 449.103 258.63C454.202 256.397 456.593 255.281 456.912 252.091C457.231 248.901 462.171 234.548 462.171 234.548C462.171 234.548 465.518 232.315 468.546 232.794C471.574 233.272 471.574 239.97 468.864 242.363C466.155 244.755 462.649 247.147 462.649 247.147L471.574 254.643C471.574 254.643 491.176 234.866 491.495 227.211C491.814 219.556 482.092 206 477.948 201.694C473.804 197.387 449.898 196.271 441.771 199.46Z" fill="#001E6C" stroke="#001E6C" stroke-miterlimit="10" stroke-linecap="round" stroke-linejoin="round"/>
<path d="M428.554 247.569C428.554 247.569 433.627 245.639 435.071 245.909C437.748 246.41 440.354 249.258 439.418 251.446C438.588 253.385 437.201 255.327 435.412 256.222C433.623 257.117 432.877 257.565 432.579 256.67C432.281 255.775 431.487 254.89 430.592 254.741C429.698 254.592 429.977 255.599 429.977 255.599C429.977 255.599 429.15 248.762 428.554 247.569Z" fill="white" stroke="#001E6C" stroke-miterlimit="10" stroke-linecap="round" stroke-linejoin="round"/>
<path d="M430.33 249.732C430.33 249.732 433.095 249.864 436.389 248.018" stroke="#001E6C" stroke-miterlimit="10" stroke-linecap="round" stroke-linejoin="round"/>
<path d="M390.255 342.35C390.255 342.35 398.236 343.518 401.546 350.921" stroke="#001E6C" stroke-miterlimit="10" stroke-linecap="round" stroke-linejoin="round"/>
<path d="M395.316 338.454C395.316 338.454 401.935 340.207 404.076 342.934" stroke="#001E6C" stroke-miterlimit="10" stroke-linecap="round" stroke-linejoin="round"/>
<path d="M482.956 305.957L477.269 339.622C477.269 339.622 468.315 341.181 468.315 343.908C468.315 346.636 473.181 353.648 473.181 353.648" stroke="#001E6C" stroke-miterlimit="10" stroke-linecap="round" stroke-linejoin="round"/>
<path d="M483.888 299.883L483.532 302.019" stroke="#001E6C" stroke-miterlimit="10" stroke-linecap="round" stroke-linejoin="round"/>
<path d="M493.875 335.63C494.85 335.659 495.811 335.75 496.736 335.921" stroke="#001E6C" stroke-miterlimit="10" stroke-linecap="round" stroke-linejoin="round"/>
<path d="M479.605 338.259C479.605 338.259 485.161 336.147 491.067 335.701" stroke="#001E6C" stroke-miterlimit="10" stroke-linecap="round" stroke-linejoin="round"/>
<path d="M494.399 340.792C494.399 340.792 500.824 343.519 503.354 352.285" stroke="#001E6C" stroke-miterlimit="10" stroke-linecap="round" stroke-linejoin="round"/>
<path d="M496.736 362.804C496.736 362.804 497.32 358.518 492.064 351.7C486.808 344.882 481.747 344.298 480.384 344.882C479.021 345.467 442.036 358.908 442.036 358.908C442.036 358.908 419.261 345.856 417.314 346.83C415.367 347.804 403.104 362.999 403.104 362.999L496.736 362.804Z" fill="white" stroke="#001E6C" stroke-miterlimit="10" stroke-linecap="round" stroke-linejoin="round"/>
<path d="M408.359 362.999L420.623 350.142" stroke="#001E6C" stroke-miterlimit="10" stroke-linecap="round" stroke-linejoin="round"/>
<path d="M414.978 362.414L426.073 352.48" stroke="#001E6C" stroke-miterlimit="10" stroke-linecap="round" stroke-linejoin="round"/>
<path d="M423.542 363.194L431.134 355.791" stroke="#001E6C" stroke-miterlimit="10" stroke-linecap="round" stroke-linejoin="round"/>
<path d="M432.108 362.61L435.222 360.077" stroke="#001E6C" stroke-miterlimit="10" stroke-linecap="round" stroke-linejoin="round"/>
<path d="M412.391 299.029L413.031 294.623" stroke="#001E6C" stroke-miterlimit="10" stroke-linecap="round" stroke-linejoin="round"/>
<path d="M403.103 362.999L411.564 304.725" stroke="#001E6C" stroke-miterlimit="10" stroke-linecap="round" stroke-linejoin="round"/>
<path d="M399.015 362.999C399.015 362.999 397.847 351.506 392.396 348.973C386.946 346.44 380.717 349.362 378.38 349.947C376.044 350.532 355.021 363.194 355.021 363.194L399.015 362.999Z" fill="white" stroke="#001E6C" stroke-miterlimit="10" stroke-linecap="round" stroke-linejoin="round"/>
<path d="M373.32 355.986C373.32 355.986 367.674 351.701 365.143 349.558C362.613 347.415 361.056 347.22 355.994 347.804C350.933 348.389 347.234 362.999 347.234 362.999H366.117L373.32 355.986Z" fill="white" stroke="#001E6C" stroke-miterlimit="10" stroke-linecap="round" stroke-linejoin="round"/>
<path d="M370.594 353.843C370.594 353.843 363.587 361.635 364.364 362.22C365.143 362.804 368.842 362.609 368.842 362.609C368.842 362.609 375.266 357.739 375.461 356.376C375.656 355.012 370.594 353.843 370.594 353.843Z" fill="white" stroke="#001E6C" stroke-miterlimit="10" stroke-linecap="round" stroke-linejoin="round"/>
<path d="M362.029 349.363L355.022 363.194L351.128 362.414C351.128 362.414 355.411 349.168 355.995 347.804C356.579 346.44 359.694 346.051 362.419 347.804" fill="white"/>
<path d="M362.029 349.363L355.022 363.194L351.128 362.414C351.128 362.414 355.411 349.168 355.995 347.804C356.579 346.44 359.694 346.051 362.419 347.804" stroke="#001E6C" stroke-miterlimit="10" stroke-linecap="round" stroke-linejoin="round"/>
<path d="M355.994 347.804C355.994 347.804 350.216 347.156 349.351 348.503C348.486 349.85 347.235 362.999 347.235 362.999L351.128 362.414L355.994 347.804Z" fill="white" stroke="#001E6C" stroke-miterlimit="10" stroke-linecap="round" stroke-linejoin="round"/>
<path d="M348.679 349.176C348.679 349.176 344.067 350.714 343.875 351.964C343.682 353.214 343.971 362.732 343.971 362.732L347.235 362.998L348.679 349.176Z" fill="white" stroke="#001E6C" stroke-miterlimit="10" stroke-linecap="round" stroke-linejoin="round"/>
<path d="M343.779 353.31C343.779 353.31 339.262 356.675 338.974 357.444C338.686 358.213 336.284 360.906 337.245 361.098C338.206 361.29 341.569 358.694 341.569 358.694L343.586 357.829L343.779 353.31Z" fill="white" stroke="#001E6C" stroke-miterlimit="10" stroke-linecap="round" stroke-linejoin="round"/>
<path d="M603.736 363.194H1.78857" stroke="#001E6C" stroke-miterlimit="10" stroke-linecap="round" stroke-linejoin="round"/>
<path d="M405.777 361.28H340.105V363.194H405.777V361.28Z" fill="#5089C6" stroke="#001E6C" stroke-miterlimit="10" stroke-linecap="round" stroke-linejoin="round"/>
<path d="M328.67 310.014H250.148L262.654 363.194H341.177L328.67 310.014Z" fill="#5089C6" stroke="#001E6C" stroke-miterlimit="10" stroke-linecap="round" stroke-linejoin="round"/>
<path d="M296.5 337.606C296.5 340.346 294.28 342.568 291.542 342.568C288.803 342.568 286.583 340.346 286.583 337.606C286.583 334.866 288.803 332.644 291.542 332.644C294.28 332.644 296.5 334.866 296.5 337.606Z" fill="#FCB239" stroke="#001E6C" stroke-miterlimit="10" stroke-linecap="round" stroke-linejoin="round"/>
<path d="M68.6508 336.281C68.6508 336.281 64.0026 333.109 60.4113 335.646C56.819 338.184 56.397 350.87 60.4113 355.31C62.7184 357.862 68.8627 355.733 68.8627 355.733L69.2856 349.602C69.2856 349.602 65.4135 353.481 63.3697 349.391C62.1019 346.853 62.7358 340.933 65.0603 339.876C67.3848 338.819 69.4975 341.145 69.4975 341.145L68.6508 336.281Z" fill="#FCB239" stroke="#001E6C" stroke-miterlimit="10" stroke-linecap="round" stroke-linejoin="round"/>
<path d="M71.2305 324.858C71.2305 324.858 78.9223 321.602 78.9223 315.385C78.9223 309.168 75.0768 309.168 74.4852 304.728" stroke="#001E6C" stroke-miterlimit="10" stroke-linecap="round" stroke-linejoin="round"/>
<path d="M80.4009 304.432C80.4009 304.432 79.8092 307.984 83.6547 310.945C87.5002 313.905 85.7251 318.642 83.9501 321.01" stroke="#001E6C" stroke-miterlimit="10" stroke-linecap="round" stroke-linejoin="round"/>
<path d="M81.5845 301.175C81.5845 301.175 82.4715 299.103 84.5429 298.215" stroke="#001E6C" stroke-miterlimit="10" stroke-linecap="round" stroke-linejoin="round"/>
<path d="M96.0992 327.62H67.4766V363.194H96.0992V327.62Z" fill="#FCB239" stroke="#001E6C" stroke-miterlimit="10" stroke-linecap="round" stroke-linejoin="round"/>
<path d="M105.889 59.6478H104.544V50.9488H86.107V59.6478H84.7622C71.259 59.6478 60.3125 70.6023 60.3125 84.1152V86.5525H130.338V84.1152C130.339 70.6023 119.392 59.6478 105.889 59.6478Z" fill="#001E6C" stroke="#001E6C" stroke-miterlimit="10" stroke-linecap="round" stroke-linejoin="round"/>
<path d="M95.3262 52.1394V1.02795" stroke="#001E6C" stroke-miterlimit="10" stroke-linecap="round" stroke-linejoin="round"/>
<path d="M386.956 59.6478H385.611V50.9488H367.173V59.6478H365.829C352.325 59.6478 341.379 70.6023 341.379 84.1152V86.5525H411.404V84.1152C411.404 70.6023 400.458 59.6478 386.956 59.6478Z" fill="#001E6C" stroke="#001E6C" stroke-miterlimit="10" stroke-linecap="round" stroke-linejoin="round"/>
<path d="M376.392 52.1394V1.02795" stroke="#001E6C" stroke-miterlimit="10" stroke-linecap="round" stroke-linejoin="round"/>
<path d="M297.214 93.5458H252.427C246.816 93.5458 242.269 98.0973 242.269 103.712V122.615C242.269 128.23 246.817 132.78 252.427 132.78H287.665L295.703 142.717V132.78H297.215C302.825 132.78 307.372 128.229 307.372 122.615V103.712C307.371 98.0973 302.823 93.5458 297.214 93.5458Z" fill="white" stroke="#001E6C" stroke-miterlimit="10" stroke-linecap="round" stroke-linejoin="round"/>
<path d="M264.612 112.906C264.612 114.434 263.374 115.672 261.848 115.672C260.321 115.672 259.084 114.434 259.084 112.906C259.084 111.379 260.321 110.141 261.848 110.141C263.374 110.141 264.612 111.379 264.612 112.906Z" fill="#FCB239" stroke="#001E6C" stroke-miterlimit="10" stroke-linecap="round" stroke-linejoin="round"/>
<path d="M274.82 115.672C276.347 115.672 277.584 114.434 277.584 112.906C277.584 111.379 276.347 110.141 274.82 110.141C273.294 110.141 272.056 111.379 272.056 112.906C272.056 114.434 273.294 115.672 274.82 115.672Z" fill="#FCB239" stroke="#001E6C" stroke-miterlimit="10" stroke-linecap="round" stroke-linejoin="round"/>
<path d="M287.792 115.672C289.318 115.672 290.556 114.434 290.556 112.906C290.556 111.379 289.318 110.141 287.792 110.141C286.265 110.141 285.028 111.379 285.028 112.906C285.028 114.434 286.265 115.672 287.792 115.672Z" fill="#FCB239" stroke="#001E6C" stroke-miterlimit="10" stroke-linecap="round" stroke-linejoin="round"/>
</svg>
