<svg width="511" height="462" viewBox="0 0 511 462" fill="none" xmlns="http://www.w3.org/2000/svg">
<g filter="url(#filter0_d_118_264)">
<path d="M169.237 10.5712C285.823 -32.708 330.768 65.7438 316.723 145.871C302.677 226 314.439 251.481 359.378 230.787C404.317 210.093 468.514 210.161 471.628 295.427C474.742 380.693 352.229 468.239 182.809 390.204C13.3882 312.17 25.5382 63.9156 169.237 10.5712Z" fill="#407BFF"/>
<path opacity="0.9" d="M169.237 10.5712C285.823 -32.708 330.768 65.7438 316.723 145.871C302.677 226 314.439 251.481 359.378 230.787C404.317 210.093 468.514 210.161 471.628 295.427C474.742 380.693 352.229 468.239 182.809 390.204C13.3882 312.17 25.5382 63.9156 169.237 10.5712Z" fill="white"/>
</g>
<g filter="url(#filter1_d_118_264)">
<path d="M57.9419 58.1886L105.645 30.437H142.4L190.895 56.8739V236.737H57.9419V58.1886Z" fill="#E0E0E0"/>
<path d="M192.263 236.737H57.9419V58.1887L59.3098 56.874C77.048 39.8268 100.416 30.4358 125.103 30.4358C125.104 30.4358 125.101 30.4358 125.103 30.4358C149.789 30.4371 173.156 39.8255 190.894 56.8727L192.262 58.1874V236.737H192.263ZM66.8519 227.827H183.353V62.0122C167.459 47.3818 146.847 39.3471 125.103 39.3471C103.358 39.3471 82.7477 47.3818 66.8519 62.0122V227.827Z" fill="#FAFAFA"/>
<path d="M121.761 228.898H128.444V169.207H185.041V162.524H128.444V101.473H185.041V94.7904H128.444V38.1929H121.761V94.7904H65.165V101.473H121.761V162.524H65.165V169.207H121.761V228.898Z" fill="#F0F0F0"/>
<path d="M196.718 241.192H53.4868V56.3708L54.7912 55.0651C93.5609 16.2966 156.644 16.2966 195.414 55.0651L196.718 56.3708V241.192ZM62.3968 232.28H187.808V60.0867C152.854 26.4941 97.3521 26.4928 62.3968 60.0867V232.28Z" fill="#F0F0F0"/>
<path d="M377.867 235.653C377.858 235.373 376.915 207.548 372.389 203.148C367.987 198.869 362.934 202.988 362.723 203.166L362.269 202.623C362.326 202.575 368.027 197.92 372.883 202.641C377.611 207.24 378.537 234.474 378.573 235.631L377.867 235.653Z" fill="#E0E0E0"/>
<path d="M378.255 241.121C378.222 240.787 375.161 207.719 387.239 193.858L387.773 194.323C375.896 207.953 378.928 240.723 378.96 241.051L378.255 241.121Z" fill="#E0E0E0"/>
<path d="M377.809 237.622L377.102 237.576C377.127 237.201 379.466 199.979 370.607 191.832L371.087 191.311C380.193 199.688 377.91 236.077 377.809 237.622Z" fill="#E0E0E0"/>
<path d="M378.961 237.602L378.253 237.597C378.262 236.571 378.545 212.455 385.396 208.53C386.918 207.656 388.409 207.511 389.828 208.099C393.97 209.813 396.023 217.184 396.108 217.496L395.425 217.683C395.404 217.609 393.378 210.333 389.557 208.752C388.352 208.254 387.071 208.386 385.748 209.145C379.248 212.87 378.964 237.355 378.961 237.602Z" fill="#E0E0E0"/>
<path d="M376.294 237.62L375.588 237.579C375.598 237.389 376.621 218.523 371.529 211.875C370.295 210.265 368.957 209.497 367.541 209.596C364.205 209.829 361.407 214.711 361.38 214.76L360.763 214.411C360.885 214.197 363.775 209.15 367.491 208.889C369.153 208.771 370.703 209.632 372.091 211.445C377.343 218.3 376.34 236.834 376.294 237.62Z" fill="#E0E0E0"/>
<path d="M377.411 240.186C377.272 238.355 374.082 195.275 379.695 187.684L380.264 188.104C374.807 195.485 378.084 239.685 378.117 240.131L377.411 240.186Z" fill="#E0E0E0"/>
<path d="M391.355 212.464C391.355 212.464 387.988 213.705 388.989 216.636C389.99 219.567 400.637 224.39 400.637 224.39C400.637 224.39 405.096 220.303 401.002 213.656C396.906 207.008 391.446 210.366 391.355 212.464Z" fill="#EBEBEB"/>
<path d="M376.717 206.885C376.717 206.885 380.302 206.735 380.507 209.826C380.712 212.917 372.739 221.465 372.739 221.465C372.739 221.465 367.05 219.409 368.272 211.698C369.494 203.986 375.826 204.984 376.717 206.885Z" fill="#EBEBEB"/>
<path d="M373.682 192.092C373.682 192.092 376.072 191.835 375.879 190.379C375.687 188.923 366.587 185.176 361.218 191.236C361.218 191.236 364.655 197.142 369.626 197.219C374.594 197.297 373.682 192.092 373.682 192.092Z" fill="#EBEBEB"/>
<path d="M378.136 188.557C378.136 188.557 375.972 189.603 375.365 188.265C374.758 186.927 380.499 178.934 388.262 181.238C388.262 181.238 388.468 188.068 384.29 190.762C380.113 193.456 378.136 188.557 378.136 188.557Z" fill="#EBEBEB"/>
<path d="M366.818 211.285C366.818 211.285 368.468 209.954 366.687 209.303C364.905 208.652 356.17 208.837 356.08 217.491C356.08 217.491 366.255 219.181 367.514 215.886C368.773 212.59 366.818 211.285 366.818 211.285Z" fill="#EBEBEB"/>
<path d="M387.567 191.876C387.567 191.876 385.917 190.545 387.697 189.894C389.478 189.244 398.214 189.428 398.306 198.083C398.306 198.083 388.131 199.773 386.872 196.478C385.611 193.18 387.567 191.876 387.567 191.876Z" fill="#EBEBEB"/>
<path d="M382.187 198.848C382.187 198.848 382.042 197.228 383.349 197.864C384.656 198.499 389.21 203.412 384.49 208.074C384.49 208.074 378.135 203.367 379.28 200.916C380.426 198.465 382.187 198.848 382.187 198.848Z" fill="#EBEBEB"/>
<path d="M365.344 201.155C365.344 201.155 366.33 199.863 364.886 199.703C363.442 199.544 356.969 201.271 358.476 207.733C358.476 207.733 366.362 207.14 366.7 204.456C367.037 201.77 365.344 201.155 365.344 201.155Z" fill="#EBEBEB"/>
<path d="M391.984 261.588H364.927L362.007 231.964H394.902L391.984 261.588Z" fill="#F0F0F0"/>
<path d="M396.347 228.696H360.563V235.233H396.347V228.696Z" fill="#E6E6E6"/>
<path d="M474.743 267.917H376.454V373.71H474.743V267.917Z" fill="#E6E6E6"/>
<path d="M489.749 260.046H477.394V387.437H489.749V260.046Z" fill="#E6E6E6"/>
<path d="M400.153 276.246H392.1V315.78H400.153V276.246Z" fill="#FAFAFA"/>
<path d="M433.544 276.246H425.491V315.78H433.544V276.246Z" fill="#F5F5F5"/>
<path d="M408.208 279.023H400.154V315.779H408.208V279.023Z" fill="#F5F5F5"/>
<path d="M425.491 279.023H417.438V315.779H425.491V279.023Z" fill="#FAFAFA"/>
<path d="M417.438 276.246H412.234V315.78H417.438V276.246Z" fill="#EBEBEB"/>
<path d="M412.234 279.023H408.207V315.779H412.234V279.023Z" fill="#FAFAFA"/>
<path d="M441.597 276.246H433.544V315.78H441.597V276.246Z" fill="#EBEBEB"/>
<path d="M449.652 279.023H441.599V315.779H449.652V279.023Z" fill="#E6E6E6"/>
<path d="M466.936 279.023H458.883V315.779H466.936V279.023Z" fill="#E6E6E6"/>
<path d="M458.883 276.246H453.679V315.78H458.883V276.246Z" fill="#FAFAFA"/>
<path d="M453.678 279.023H449.651V315.779H453.678V279.023Z" fill="#EBEBEB"/>
<path d="M470.963 277.182H466.936V315.781H470.963V277.182Z" fill="#FAFAFA"/>
<path d="M462.91 368.768H470.963V329.233H462.91V368.768Z" fill="#FAFAFA"/>
<path d="M429.518 368.768H437.571V329.233H429.518V368.768Z" fill="#FAFAFA"/>
<path d="M454.857 368.768H462.91V332.012H454.857V368.768Z" fill="#F0F0F0"/>
<path d="M437.572 368.768H445.625V332.012H437.572V368.768Z" fill="#EBEBEB"/>
<path d="M445.624 368.768H450.829V329.233H445.624V368.768Z" fill="#FAFAFA"/>
<path d="M450.829 368.768H454.856V332.012H450.829V368.768Z" fill="#F5F5F5"/>
<path d="M421.466 368.768H429.519V329.233H421.466V368.768Z" fill="#EBEBEB"/>
<path d="M413.412 368.768H421.465V332.012H413.412V368.768Z" fill="#F5F5F5"/>
<path d="M396.128 368.768H404.181V332.012H396.128V368.768Z" fill="#E6E6E6"/>
<path d="M404.179 368.768H409.384V329.233H404.179V368.768Z" fill="#FAFAFA"/>
<path d="M386.895 368.768H392.1V329.233H386.895V368.768Z" fill="#FAFAFA"/>
<path d="M409.385 368.768H413.412V332.012H409.385V368.768Z" fill="#EBEBEB"/>
<path d="M392.1 368.768H396.127V330.169H392.1V368.768Z" fill="#F0F0F0"/>
<path d="M474.247 260.046H470.953H373.342V380.299H470.953V387.437H477.542V260.046H474.247ZM470.953 368.768H379.555V322.414H470.953V368.768ZM470.953 315.823H379.555V271.578H470.953V315.823Z" fill="#F0F0F0"/>
<path d="M278.005 373.71H376.293V267.917H278.005V373.71Z" fill="#E6E6E6"/>
<path d="M281.785 387.438H294.14V379.006H281.785V387.438Z" fill="#E6E6E6"/>
<path d="M364.929 315.779H372.982V276.245H364.929V315.779Z" fill="#FAFAFA"/>
<path d="M331.539 315.779H339.592V276.245H331.539V315.779Z" fill="#F5F5F5"/>
<path d="M356.874 315.78H364.929V279.024H356.874V315.78Z" fill="#F5F5F5"/>
<path d="M339.591 315.78H347.644V279.024H339.591V315.78Z" fill="#FAFAFA"/>
<path d="M347.644 315.779H352.849V276.245H347.644V315.779Z" fill="#EBEBEB"/>
<path d="M352.848 315.78H356.875V279.024H352.848V315.78Z" fill="#FAFAFA"/>
<path d="M328.794 315.779H336.847V276.245H328.794V315.779Z" fill="#EBEBEB"/>
<path d="M320.741 315.78H328.794V279.024H320.741V315.78Z" fill="#E6E6E6"/>
<path d="M303.456 315.78H311.509V279.024H303.456V315.78Z" fill="#E6E6E6"/>
<path d="M311.509 315.779H316.713V276.245H311.509V315.779Z" fill="#FAFAFA"/>
<path d="M316.713 315.78H320.74V279.024H316.713V315.78Z" fill="#EBEBEB"/>
<path d="M299.428 315.78H303.456V277.181H299.428V315.78Z" fill="#F5F5F5"/>
<path d="M303.699 329.232H295.646V368.767H303.699V329.232Z" fill="#FAFAFA"/>
<path d="M337.091 329.232H329.038V368.767H337.091V329.232Z" fill="#FAFAFA"/>
<path d="M311.753 332.011H303.7V368.767H311.753V332.011Z" fill="#F5F5F5"/>
<path d="M329.037 332.011H320.984V368.767H329.037V332.011Z" fill="#EBEBEB"/>
<path d="M320.985 329.232H315.78V368.767H320.985V329.232Z" fill="#FAFAFA"/>
<path d="M315.78 332.011H311.753V368.767H315.78V332.011Z" fill="#F5F5F5"/>
<path d="M339.834 329.232H331.781V368.767H339.834V329.232Z" fill="#EBEBEB"/>
<path d="M347.888 332.011H339.835V368.767H347.888V332.011Z" fill="#F5F5F5"/>
<path d="M365.173 332.011H357.12V368.767H365.173V332.011Z" fill="#E6E6E6"/>
<path d="M357.12 329.232H351.916V368.767H357.12V329.232Z" fill="#FAFAFA"/>
<path d="M373.342 329.232H368.138V368.767H373.342V329.232Z" fill="#FAFAFA"/>
<path d="M351.915 332.011H347.888V368.767H351.915V332.011Z" fill="#EBEBEB"/>
<path d="M369.2 330.17H365.173V368.769H369.2V330.17Z" fill="#EBEBEB"/>
<path d="M275.206 260.046V387.437H281.795V380.299H379.405V260.046H281.795H278.5H275.206ZM281.795 322.412H373.192V368.767H281.795V322.412ZM281.795 271.578H373.192V315.823H281.795V271.578Z" fill="#F0F0F0"/>
</g>
<g filter="url(#filter2_d_118_264)">
<path d="M255.389 453.954C394.227 453.954 506.778 447.381 506.778 439.273C506.778 431.165 394.227 424.592 255.389 424.592C116.551 424.592 4 431.165 4 439.273C4 447.381 116.551 453.954 255.389 453.954Z" fill="#F5F5F5"/>
</g>
<path d="M57.5557 366.691C57.5557 366.691 49.5482 368.438 46.1278 366.691C42.7088 364.945 43.9833 339.493 40.4904 338.967C32.4504 337.756 33.8183 371.557 37.2373 378.68C40.6563 385.802 58.2805 382.774 58.2805 382.774L57.5557 366.691Z" fill="#407BFF"/>
<path opacity="0.2" d="M57.5557 366.691C57.5557 366.691 49.5482 368.438 46.1278 366.691C42.7088 364.945 43.9833 339.493 40.4904 338.967C32.4504 337.756 33.8183 371.557 37.2373 378.68C40.6563 385.802 58.2805 382.774 58.2805 382.774L57.5557 366.691Z" fill="white"/>
<path d="M58.2206 426.64C58.2206 426.64 46.3571 254.023 60.5195 252.036C74.6818 250.05 78.0982 310.921 72.628 424.447L58.2206 426.64Z" fill="#407BFF"/>
<path opacity="0.3" d="M58.2206 426.64C58.2206 426.64 46.3571 254.023 60.5195 252.036C74.6818 250.05 78.0982 310.921 72.628 424.447L58.2206 426.64Z" fill="white"/>
<path d="M41.5898 413.885H88.1714L84.2817 443.689H45.4795L41.5898 413.885Z" fill="#263238"/>
<path d="M72.2872 308.625C72.2872 308.625 85.1945 309.753 85.5796 308.625C85.9647 307.497 85.9647 283.067 91.4361 284.51C96.9076 285.953 94.5142 315.362 91.4361 318.781C88.3581 322.2 72.2872 324.051 72.2872 324.051C72.2872 324.051 70.1336 313.207 72.2872 308.625Z" fill="#407BFF"/>
<path opacity="0.4" d="M72.2872 308.625C72.2872 308.625 85.1945 309.753 85.5796 308.625C85.9647 307.497 85.9647 283.067 91.4361 284.51C96.9076 285.953 94.5142 315.362 91.4361 318.781C88.3581 322.2 72.2872 324.051 72.2872 324.051C72.2872 324.051 70.1336 313.207 72.2872 308.625Z" fill="white"/>
<path d="M64.107 410.878C63.1968 397.75 62.3709 384.615 61.6034 371.477C60.876 358.336 60.229 345.19 59.6793 332.041C59.1192 318.89 58.7406 305.731 58.5811 292.563C58.5111 285.979 58.5059 279.393 58.69 272.802C58.7911 269.506 58.9208 266.21 59.2151 262.911C59.3564 261.261 59.5457 259.611 59.8478 257.957C59.9969 257.129 60.1953 256.299 60.4935 255.459L60.7736 254.823C60.9188 254.6 61.0459 254.386 61.2442 254.164C61.3531 254.053 61.4945 253.936 61.7136 253.845C61.9301 253.757 62.2322 253.741 62.4682 253.835C62.9116 254.024 63.084 254.303 63.228 254.514C63.7414 255.397 63.9087 256.205 64.1226 257.033C64.3158 257.857 64.4649 258.677 64.5997 259.499C64.8681 261.141 65.0665 262.784 65.248 264.425C65.6007 267.709 65.8587 270.996 66.0843 274.284C66.5277 280.859 66.8311 287.436 67.0878 294.015C67.5805 307.173 67.9202 320.331 68.0901 333.492C68.2742 346.652 68.3805 359.813 68.4246 372.973C68.4259 386.133 68.3805 399.295 68.269 412.453C68.1692 399.293 68.0032 386.136 67.7906 372.978C67.6155 359.821 67.399 346.665 67.093 333.511C66.765 320.359 66.4629 307.204 65.908 294.063C65.6318 287.493 65.3089 280.925 64.8474 274.371C64.614 271.095 64.3456 267.822 63.9865 264.565C63.8023 262.938 63.6014 261.313 63.333 259.709C63.1981 258.908 63.0503 258.111 62.8662 257.333C62.6821 256.573 62.4578 255.754 62.1363 255.213C62.0662 255.078 61.9612 255.024 62.026 255.052C62.1466 255.104 62.2633 254.986 62.1518 255.085L61.912 255.431L61.6967 255.923C61.4439 256.631 61.2507 257.407 61.1068 258.196C60.8125 259.777 60.6193 261.399 60.4754 263.026C60.1746 266.28 60.0358 269.562 59.9256 272.841C59.7221 279.404 59.7078 285.98 59.7584 292.554C59.8582 305.705 60.2666 318.855 60.6698 332.006C61.0977 345.155 61.6384 358.303 62.2322 371.447C62.791 384.592 63.4069 397.738 64.107 410.878Z" fill="#407BFF"/>
<path d="M73.9116 314.422C75.579 314.268 77.2438 314.156 78.9008 313.965C80.5578 313.812 82.2135 313.636 83.8368 313.357C84.6459 313.215 85.4523 313.05 86.2134 312.836C86.9434 312.671 87.8134 312.162 87.5579 312.078C87.4529 311.094 87.5385 310.316 87.5657 309.451C87.6137 308.609 87.6681 307.77 87.7395 306.935C88.0454 303.598 88.4331 300.278 88.9491 296.973C89.4704 293.672 89.9734 290.359 90.8382 287.116C90.6632 288.78 90.5154 290.441 90.3909 292.107L89.9397 297.092L89.0308 307.046C88.8947 308.669 88.7132 310.427 88.7702 311.9L88.778 312.074C88.7832 312.187 88.778 312.302 88.765 312.413C88.7158 312.605 88.6133 312.844 88.5018 312.949C88.2723 313.226 88.0351 313.356 87.8146 313.47C87.3673 313.696 86.9395 313.821 86.5129 313.929C85.6611 314.147 84.817 314.257 83.9729 314.341C80.6032 314.668 77.2542 314.655 73.9116 314.422Z" fill="#407BFF"/>
<path d="M73.9116 320.064L79.4155 318.844C81.2515 318.458 83.0848 318.066 84.9039 317.628C86.6905 317.167 88.6004 316.781 90.1822 316.116C90.352 316.039 90.553 315.913 90.5102 315.926C90.5763 315.804 90.658 315.647 90.7202 315.44C90.8551 315.051 90.951 314.603 91.0405 314.162C91.2103 313.269 91.3283 312.347 91.4334 311.427C91.8625 307.731 92.0726 303.984 92.3513 300.246L92.7195 294.63L93.1474 289.008C93.3691 292.767 93.3964 296.527 93.3484 300.288C93.303 304.051 93.1293 307.809 92.7221 311.577C92.6029 312.52 92.4732 313.461 92.2826 314.41C92.1789 314.887 92.0764 315.36 91.9001 315.857C91.8223 316.099 91.7017 316.365 91.5241 316.645C91.2 317.055 90.9471 317.093 90.6982 317.227C88.7845 317.942 86.9784 318.261 85.1061 318.601C81.3902 319.254 77.6626 319.753 73.9116 320.064Z" fill="#407BFF"/>
<path d="M53.5686 371.413C50.278 371.443 46.9704 371.315 43.7096 370.267C43.3038 370.108 42.8953 369.954 42.4973 369.701C42.321 369.631 42.0383 369.358 41.8944 369.143C41.7596 368.928 41.6325 368.708 41.5573 368.5C41.2111 367.659 41.0335 366.839 40.8623 366.013C40.5563 364.365 40.3865 362.719 40.2348 361.075C39.982 357.783 39.8731 354.493 39.9055 351.204C39.9301 347.916 40.0248 344.629 40.3152 341.35L40.6393 346.269L40.9025 351.181C41.1035 354.451 41.2474 357.722 41.5262 360.97C41.6493 362.593 41.8153 364.215 42.0668 365.801C42.1978 366.585 42.3495 367.382 42.6049 368.07C42.6633 368.254 42.7424 368.387 42.8163 368.525C42.9057 368.64 42.907 368.683 43.0963 368.801C43.3777 369.014 43.729 369.178 44.0752 369.344C45.5183 369.955 47.1234 370.317 48.7195 370.617C50.3156 370.96 51.9402 371.176 53.5686 371.413Z" fill="#407BFF"/>
<path d="M37.9256 344.428C38.1123 346.345 38.229 348.262 38.3963 350.177L38.7852 355.924C39.064 359.751 39.2727 363.581 39.5813 367.395C39.7265 369.301 39.8834 371.211 40.1388 373.085C40.2568 374.003 40.3969 375.001 40.6562 375.758C40.8597 376.505 41.6195 376.928 42.4325 377.345C44.1167 378.075 45.9993 378.491 47.8728 378.813C49.7502 379.173 51.6562 379.396 53.5673 379.613C49.7217 379.671 45.8385 379.556 42.0448 378.263C41.578 378.052 41.1022 377.869 40.6575 377.533C40.2153 377.247 39.7667 376.728 39.6124 376.206C39.217 375.162 39.0912 374.236 38.924 373.262C38.6232 371.336 38.4572 369.417 38.2886 367.495C38.0099 363.651 37.8349 359.809 37.7921 355.962C37.7402 352.118 37.7415 348.274 37.9256 344.428Z" fill="#407BFF"/>
<path d="M117.356 419.578L151.792 416.576V365.272H163.9V416.564L198.461 419.579C201.505 419.878 203.826 422.439 203.826 425.498V430.085H159.03H156.785H111.989V425.498C111.991 422.438 114.311 419.877 117.356 419.578Z" fill="#263238"/>
<path opacity="0.1" d="M117.356 419.578L151.792 416.576V365.272H163.9V416.564L198.461 419.579C201.505 419.878 203.826 422.439 203.826 425.498V430.085H159.03H156.785H111.989V425.498C111.991 422.438 114.311 419.877 117.356 419.578Z" fill="white"/>
<path d="M192.678 435.774C192.678 440.146 196.222 443.689 200.594 443.689C204.966 443.689 208.509 440.146 208.509 435.774C208.509 431.402 204.966 427.858 200.594 427.858C196.222 427.858 192.678 431.402 192.678 435.774Z" fill="#263238"/>
<path d="M123.139 435.774C123.139 440.146 119.595 443.689 115.223 443.689C110.851 443.689 107.308 440.146 107.308 435.774C107.308 431.402 110.851 427.858 115.223 427.858C119.595 427.858 123.139 431.402 123.139 435.774Z" fill="#263238"/>
<path d="M155.068 374.499H160.626C163.586 374.499 165.985 372.1 165.985 369.14V327.496H149.709V369.14C149.709 372.1 152.108 374.499 155.068 374.499Z" fill="#263238"/>
<path opacity="0.2" d="M155.068 374.499H160.626C163.586 374.499 165.985 372.1 165.985 369.14V327.496H149.709V369.14C149.709 372.1 152.108 374.499 155.068 374.499Z" fill="white"/>
<path d="M122.134 238.029C122.134 238.029 125.862 312.812 141.968 325.687H124.744C124.744 325.687 109.383 300.211 108.238 238.029H122.134Z" fill="#263238"/>
<path opacity="0.1" d="M122.134 238.029C122.134 238.029 125.862 312.812 141.968 325.687H124.744C124.744 325.687 109.383 300.211 108.238 238.029H122.134Z" fill="white"/>
<path d="M197.099 319.489H120.733C117.153 319.489 114.25 322.392 114.25 325.972V331.883H203.582V325.972C203.582 322.392 200.679 319.489 197.099 319.489Z" fill="#407BFF"/>
<path d="M204.373 325.687H113.458C112.018 325.687 110.851 326.855 110.851 328.294V329.275C110.851 330.716 112.019 331.883 113.458 331.883H204.373C205.814 331.883 206.981 330.715 206.981 329.275V328.294C206.982 326.853 205.814 325.687 204.373 325.687Z" fill="#263238"/>
<path opacity="0.6" d="M204.373 325.687H113.458C112.018 325.687 110.851 326.855 110.851 328.294V329.275C110.851 330.716 112.019 331.883 113.458 331.883H204.373C205.814 331.883 206.981 330.715 206.981 329.275V328.294C206.982 326.853 205.814 325.687 204.373 325.687Z" fill="white"/>
<path d="M105.217 254.401H132.811C140.895 254.401 146.732 247.137 145.85 238.178L144.673 226.217C143.791 217.258 136.523 209.995 128.439 209.995H100.845C92.7613 209.995 86.9242 217.258 87.8059 226.217L88.9831 238.177C89.8648 247.137 97.1333 254.401 105.217 254.401Z" fill="#407BFF"/>
<path d="M249.22 238.183L257.024 239.08C257.024 239.08 262.121 236.818 262.164 236.627C262.205 236.438 268.968 239.08 268.968 239.08L270.262 243.953C270.262 243.953 260.651 244.979 258.838 243.953L248.576 244.402L249.22 238.183Z" fill="#EBB376"/>
<path d="M253.496 245.557H223.403C220.33 245.557 216.155 238.063 212.862 230.88C209.854 224.293 207.572 217.992 207.572 217.992L210.8 210.005L213.99 202.109C220.11 206.336 227.63 234.912 227.63 234.912L253.496 238.309C253.496 238.309 254.222 245.557 253.496 245.557Z" fill="#407BFF"/>
<path d="M252.169 238.183L250.759 246.449H254.606V238.183H252.169Z" fill="#407BFF"/>
<path opacity="0.6" d="M252.169 238.183L250.759 246.449H254.606V238.183H252.169Z" fill="white"/>
<path opacity="0.2" d="M212.862 230.88C209.854 224.293 207.572 217.992 207.572 217.992L210.8 210.005C212.201 213.622 215.17 222.854 212.862 230.88Z" fill="black"/>
<path d="M218.757 175.942C218.757 175.942 215.734 187.598 219.496 192.779C219.496 192.779 185.582 193.173 176.038 187.018C166.494 180.863 177.216 150.772 191.176 146.155C205.136 141.539 228.275 153.069 218.757 175.942Z" fill="#263238"/>
<path d="M285.642 397.203L278.19 398.62C278.19 398.62 237.482 301.039 230.999 300.767C224.517 300.495 158.509 330.834 141.965 314.005C125.42 297.189 149.342 256.645 149.342 256.645C149.342 256.645 189.133 250.966 192.129 259.951C192.712 261.689 193.347 265.099 193.814 268.016C194.268 270.765 194.579 273.073 194.579 273.073C194.579 273.073 194.592 273.073 194.605 273.06C195.837 272.749 235.784 262.441 251.524 273.073C267.512 283.886 285.642 397.203 285.642 397.203Z" fill="#EBB376"/>
<path d="M170.542 318.051C170.542 318.051 173.236 318.115 214.974 316.17C214.974 316.17 207.228 387.857 203.826 426.92L212.536 427.408C212.536 427.408 247.636 325.895 247.311 312.606C246.987 299.316 231.753 295.426 231.753 295.426C231.753 295.426 202.016 312.604 170.542 318.051Z" fill="#EBB376"/>
<path d="M170.583 318.054C171.01 318.054 175.25 318.002 207.82 316.511L207.184 307.137C196.669 311.415 183.769 315.759 170.583 318.054Z" fill="#263238"/>
<path opacity="0.3" d="M214.977 316.174C214.977 316.174 207.223 387.861 203.826 426.913L212.539 427.406C212.539 427.406 247.637 325.898 247.313 312.608C246.989 299.318 231.754 295.429 231.754 295.429C231.754 295.429 221.732 301.211 207.184 307.137C196.669 311.415 183.769 315.759 170.583 318.054C171.01 318.054 175.25 318.002 207.82 316.511C210.063 316.407 212.448 316.29 214.977 316.174Z" fill="#B37D44"/>
<path d="M141.968 314.003C151.887 324.103 186.868 321.445 210.894 321.445L225.363 268.014L196.243 270.503C196.243 270.503 195.205 267.91 194.155 265.252C193.286 263.022 192.392 260.74 192.132 259.949C189.137 250.964 149.346 256.643 149.346 256.643C149.346 256.643 125.424 297.186 141.968 314.003Z" fill="#263238"/>
<path opacity="0.3" d="M171.31 277.919L196.242 270.503C196.242 270.503 195.205 267.909 194.155 265.251C184.444 269.206 171.31 277.919 171.31 277.919Z" fill="black"/>
<path d="M150.304 250.459L149.346 256.65L192.131 259.949L193.264 252.628L150.304 250.459Z" fill="#263238"/>
<path opacity="0.2" d="M150.304 250.459L149.346 256.65L192.131 259.949L193.264 252.628L150.304 250.459Z" fill="black"/>
<path d="M164.899 250.075L162.785 249.857L161.677 260.625L163.791 260.842L164.899 250.075Z" fill="#263238"/>
<path d="M183.255 252.602L173.881 252L173.424 259.108L182.798 259.71L183.255 252.602Z" fill="white"/>
<path d="M191.173 251.185L189.059 250.968L187.952 261.734L190.066 261.951L191.173 251.185Z" fill="#263238"/>
<path d="M306.65 407.417C304.879 406.927 303.034 406.766 301.204 406.941C301.204 406.941 294.347 404.278 285.811 390.981L278.831 392.078C276.42 392.5 274.53 394.381 274.098 396.79C274.035 397.118 274.022 397.455 274.058 397.787C274.403 399.461 274.855 401.11 275.413 402.726C276.891 407.841 282.166 418.469 282.166 418.469L283.299 417.975L279.453 407.918C278.163 404.499 282.434 407.309 284.738 410.593C287.042 413.877 290.27 417.035 297.685 414.019C306.319 410.455 309.727 408.572 306.65 407.417Z" fill="#2E353A"/>
<path d="M282.514 386.336C282.514 386.336 286.75 392.255 291.97 398.606C297.192 404.955 301.203 406.94 301.203 406.94C301.203 406.94 296.117 410.302 292.13 407.631C288.143 404.962 279.482 393.733 274.097 396.788C274.097 396.788 274.104 395.16 274.573 393.487C275.045 391.814 282.514 386.336 282.514 386.336Z" fill="#EBB376"/>
<path d="M230.285 440.663C228.8 439.58 227.13 438.779 225.357 438.298C225.357 438.298 219.878 433.388 216.578 417.937L209.658 416.503C207.254 416.048 204.822 417.142 203.569 419.244C203.394 419.529 203.262 419.839 203.18 420.163C202.913 421.851 202.755 423.554 202.708 425.263C202.288 430.569 203.479 442.375 203.479 442.375L204.713 442.312L204.658 431.547C204.656 427.892 207.664 432.027 208.662 435.912C209.661 439.798 211.569 443.89 219.573 443.681C228.905 443.39 232.758 442.83 230.285 440.663Z" fill="#2E353A"/>
<path d="M215.13 412.43C215.13 412.43 217.007 419.462 219.655 427.244C222.302 435.026 225.358 438.299 225.358 438.299C225.358 438.299 219.413 439.651 216.623 435.747C213.834 431.843 209.687 418.282 203.571 419.244C203.571 419.244 204.15 417.724 205.18 416.323C206.209 414.923 215.13 412.43 215.13 412.43Z" fill="#EBB376"/>
<path opacity="0.3" d="M215.13 412.43C215.13 412.43 217.007 419.462 219.655 427.244C222.302 435.026 225.358 438.299 225.358 438.299C225.358 438.299 219.413 439.651 216.623 435.747C213.834 431.843 209.687 418.282 203.571 419.244C203.571 419.244 204.15 417.724 205.18 416.323C206.209 414.923 215.13 412.43 215.13 412.43Z" fill="#B27D44"/>
<path d="M213.99 202.109C213.99 202.109 209.867 226.886 205.095 233.68C204.875 233.991 204.667 234.25 204.447 234.484C200.752 238.387 196.227 246.749 194.062 250.95C193.271 252.493 192.791 253.478 192.791 253.478L150.121 251.611C150.121 251.611 151.444 243.326 152.818 234.912C153.79 228.922 155.074 221.842 156.617 215.204C157.226 212.585 157.875 210.044 158.562 207.671C159.923 202.9 161.427 198.751 163.048 195.95C164.007 194.303 165.006 193.111 166.043 192.54C166.043 192.54 167.858 192.372 170.996 192.385H171.229C177.842 192.423 190.016 193.253 203.436 197.804C206.898 198.971 210.437 200.384 213.99 202.109Z" fill="#407BFF"/>
<path d="M176.038 192.857C176.038 192.857 182.23 207.476 193.373 207.476C204.516 207.476 204.879 199.268 204.879 199.268C204.879 199.268 193.735 191.958 176.038 192.857Z" fill="#407BFF"/>
<path d="M190.178 191.635C182.771 189.636 178.945 192.377 174.701 199.072L184.306 202.919L192.229 225.872L201.042 205.526L207.649 205.747C207.649 205.747 206.809 196.123 190.178 191.635Z" fill="#407BFF"/>
<path opacity="0.6" d="M190.178 191.635C182.771 189.636 178.945 192.377 174.701 199.072L184.306 202.919L192.229 225.872L201.042 205.526L207.649 205.747C207.649 205.747 206.809 196.123 190.178 191.635Z" fill="white"/>
<path opacity="0.2" d="M205.095 233.68C204.875 233.991 204.667 234.251 204.447 234.484C200.752 238.387 196.227 246.749 194.061 250.95C184.065 249.706 164.578 246.672 162.023 241.732C159.677 237.22 157.667 223.554 156.617 215.204C157.226 212.585 157.874 210.044 158.562 207.671L173.044 203.613C173.044 203.613 175.43 218.731 175.806 225.875C176.104 231.761 197.601 233.317 205.095 233.68Z" fill="black"/>
<path d="M197.884 196.806C197.961 199.433 199.444 200.052 199.444 200.052C199.982 204.883 193.263 216.938 193.263 216.938L182.808 195.399C188.82 193.011 190.169 186.383 190.422 182.445C190.543 180.607 190.422 179.352 190.422 179.352L201.652 186.426C200.53 188.303 199.738 189.933 199.143 191.342C198.165 193.747 197.852 195.518 197.884 196.806Z" fill="#EBB376"/>
<path opacity="0.2" d="M200.966 185.544C200.042 187.525 199.417 189.226 198.968 190.689C198.237 193.181 198.105 194.975 198.268 196.253C191.955 196.748 189.445 182.802 189.445 182.802L189.39 182.722C189.324 180.88 189.077 179.644 189.077 179.644L200.966 185.544Z" fill="black"/>
<path d="M208.474 155.815C219.336 159.128 221.058 166.008 218.44 177.443C215.169 191.734 209.037 200.724 196.368 193.596C179.163 183.915 190.438 150.314 208.474 155.815Z" fill="#EBB376"/>
<path d="M211.604 174.695C211.604 174.695 212.243 177.991 213.391 180.162C213.391 180.162 212.01 181.357 210.153 180.518L211.604 174.695Z" fill="#D58745"/>
<path d="M205.228 171.779C204.976 172.677 204.288 173.27 203.689 173.102C203.09 172.935 202.808 172.07 203.059 171.172C203.31 170.273 203.999 169.681 204.598 169.848C205.197 170.017 205.479 170.88 205.228 171.779Z" fill="#263238"/>
<path d="M204.336 169.822L206.504 169.602C206.504 169.602 205.072 170.975 204.336 169.822Z" fill="#263238"/>
<path d="M216.45 174.716C216.198 175.614 215.51 176.207 214.91 176.039C214.311 175.872 214.029 175.007 214.28 174.109C214.532 173.21 215.22 172.618 215.819 172.785C216.42 172.952 216.701 173.817 216.45 174.716Z" fill="#263238"/>
<path d="M215.559 172.759L217.728 172.539C217.728 172.539 216.294 173.91 215.559 172.759Z" fill="#263238"/>
<path d="M207.406 164.246C207.406 164.246 204.476 162.918 202.195 164.452" stroke="#263238" stroke-width="0.7247" stroke-miterlimit="10" stroke-linecap="round" stroke-linejoin="round"/>
<path d="M215.441 166.195C215.441 166.195 217.576 166.069 219.498 168.408" stroke="#263238" stroke-width="0.7247" stroke-miterlimit="10" stroke-linecap="round" stroke-linejoin="round"/>
<path d="M191.023 170.5C191.023 170.5 198.823 163.126 200.153 156.002C200.153 156.002 224.357 153.773 218.757 175.943C218.757 175.943 226.777 157.187 208.237 151.061C189.729 144.945 181.449 172.273 188.608 183.352C188.608 183.352 186.179 175.123 191.023 170.5Z" fill="#263238"/>
<path d="M202.109 180.257C202.109 180.257 202.684 184.828 207.651 184.946" stroke="#263238" stroke-width="0.7247" stroke-miterlimit="10" stroke-linecap="round" stroke-linejoin="round"/>
<path d="M189.144 168.327C189.102 168.47 189.177 168.614 189.315 168.68C189.338 168.692 189.364 168.701 189.393 168.707L200.443 171.281C200.089 173.301 201.13 175.392 203.235 176.415C205.895 177.708 209.224 176.804 210.655 174.402C210.795 174.166 210.895 173.921 210.988 173.674C211.577 173.298 212.071 173.154 212.416 173.27C212.842 173.422 212.976 173.891 212.984 173.921C212.649 175.928 213.693 178.001 215.784 179.016C218.445 180.309 221.773 179.405 223.204 177.003C224.636 174.6 223.635 171.595 220.976 170.302C218.315 169.009 214.987 169.913 213.555 172.316C213.414 172.553 213.316 172.799 213.221 173.046C213.078 172.9 212.906 172.765 212.662 172.686C212.242 172.545 211.757 172.601 211.219 172.83C211.572 170.812 210.529 168.721 208.426 167.701C205.766 166.408 202.437 167.312 201.006 169.715C200.822 170.025 200.681 170.343 200.576 170.669L189.565 168.104C189.38 168.06 189.192 168.16 189.144 168.327ZM214.163 172.611C215.415 170.512 218.323 169.722 220.648 170.852C222.972 171.981 223.846 174.608 222.595 176.707C221.344 178.806 218.436 179.596 216.111 178.466C213.786 177.337 212.912 174.71 214.163 172.611ZM201.614 170.009C202.865 167.91 205.773 167.12 208.098 168.25C210.423 169.379 211.297 172.006 210.046 174.105C208.794 176.204 205.886 176.994 203.561 175.864C201.237 174.736 200.363 172.108 201.614 170.009Z" fill="#263238"/>
<g opacity="0.3">
<path d="M189.144 168.327C189.102 168.47 189.177 168.614 189.315 168.68C189.338 168.692 189.364 168.701 189.393 168.707L200.443 171.281C200.089 173.301 201.13 175.392 203.235 176.415C205.895 177.708 209.224 176.804 210.655 174.402C210.795 174.166 210.895 173.921 210.988 173.674C211.577 173.298 212.071 173.154 212.416 173.27C212.842 173.422 212.976 173.891 212.984 173.921C212.649 175.928 213.693 178.001 215.784 179.016C218.445 180.309 221.773 179.405 223.204 177.003C224.636 174.6 223.635 171.595 220.976 170.302C218.315 169.009 214.987 169.913 213.555 172.316C213.414 172.553 213.316 172.799 213.221 173.046C213.078 172.9 212.906 172.765 212.662 172.686C212.242 172.545 211.757 172.601 211.219 172.83C211.572 170.812 210.529 168.721 208.426 167.701C205.766 166.408 202.437 167.312 201.006 169.715C200.822 170.025 200.681 170.343 200.576 170.669L189.565 168.104C189.38 168.06 189.192 168.16 189.144 168.327ZM214.163 172.611C215.415 170.512 218.323 169.722 220.648 170.852C222.972 171.981 223.846 174.608 222.595 176.707C221.344 178.806 218.436 179.596 216.111 178.466C213.786 177.337 212.912 174.71 214.163 172.611ZM201.614 170.009C202.865 167.91 205.773 167.12 208.098 168.25C210.423 169.379 211.297 172.006 210.046 174.105C208.794 176.204 205.886 176.994 203.561 175.864C201.237 174.736 200.363 172.108 201.614 170.009Z" fill="white"/>
</g>
<path d="M192.097 173.334C192.558 171.563 191.657 168.053 188.296 167.416C184.819 166.757 181.108 173.177 188.973 177.392C190.101 177.996 191.135 177.029 192.097 173.334Z" fill="#EBB376"/>
<path d="M207.649 244.402C207.649 244.402 218.572 242.083 226.009 241.735C233.446 241.388 241.781 241.243 239.729 245.266L209.466 245.55L207.649 244.402Z" fill="#407BFF"/>
<path opacity="0.7" d="M207.649 244.402C207.649 244.402 218.572 242.083 226.009 241.735C233.446 241.388 241.781 241.243 239.729 245.266L209.466 245.55L207.649 244.402Z" fill="white"/>
<path d="M241.269 244.409H206.262V245.596H241.269V244.409Z" fill="#263238"/>
<path d="M207.964 223.958L206.564 224.598L213.807 240.434L215.207 239.794L207.964 223.958Z" fill="#263238"/>
<path d="M193.264 237.627L203.266 240.01C203.266 240.01 205.13 237.489 207.406 236.618C209.681 235.747 218.38 234.379 218.38 234.379L220.483 244.409C220.483 244.409 206.429 245.847 205.32 245.557L193.264 244.403V237.627Z" fill="#EBB376"/>
<path d="M166.048 192.535C159.074 194.541 158.561 231.13 161.296 235.917C164.032 240.704 196.964 245.555 196.964 245.555L199.081 238.182C199.081 238.182 171.748 228.703 171.308 227.949C170.869 227.196 173.093 206.255 173.093 202.108C173.093 197.961 166.048 192.535 166.048 192.535Z" fill="#407BFF"/>
<path d="M197.713 236.618L196.243 246.853L199.081 246.449L200.966 237.286L197.713 236.618Z" fill="#407BFF"/>
<path opacity="0.6" d="M197.713 236.618L196.243 246.853L199.081 246.449L200.966 237.286L197.713 236.618Z" fill="white"/>
<path d="M252.282 443.69H244.867L243.655 254.293H253.493L252.282 443.69Z" fill="#263238"/>
<path opacity="0.4" d="M253.498 254.593L253.305 284.523L252.288 443.69H244.867L243.85 284.523L243.657 254.593H253.498Z" fill="white"/>
<path opacity="0.2" d="M253.498 254.593L253.305 284.855H243.85L243.657 254.593H253.498Z" fill="black"/>
<path d="M331.015 443.69H323.6L310.275 254.293H320.113L331.015 443.69Z" fill="#263238"/>
<path opacity="0.5" d="M331.02 443.69H323.6L310.924 263.508L310.271 254.593H320.113L320.646 263.508L331.02 443.69Z" fill="white"/>
<path opacity="0.2" d="M320.646 263.066H310.924L310.271 254.593H320.113L320.646 263.066Z" fill="black"/>
<path d="M173.55 443.69H166.135L177.036 254.293H186.873L173.55 443.69Z" fill="#263238"/>
<path opacity="0.5" d="M186.872 254.593L186.219 263.508L173.545 443.69H166.136L176.498 263.508L177.031 254.593H186.872Z" fill="white"/>
<path opacity="0.2" d="M177.031 254.593H186.872L186.218 263.066H176.498L177.031 254.593Z" fill="black"/>
<path d="M325.109 258.939H172.04C170.492 258.939 169.237 257.684 169.237 256.136V249.648H327.912V256.136C327.912 257.685 326.657 258.939 325.109 258.939Z" fill="#263238"/>
<path opacity="0.6" d="M325.109 258.939H172.04C170.492 258.939 169.237 257.684 169.237 256.136V249.648H327.912V256.136C327.912 257.685 326.657 258.939 325.109 258.939Z" fill="white"/>
<path opacity="0.2" d="M327.912 249.648H169.237V254.294H327.912V249.648Z" fill="black"/>
<path d="M332.508 250.859H164.641C163.196 250.859 162.023 249.686 162.023 248.241C162.023 246.795 163.196 245.623 164.641 245.623H332.508C333.954 245.623 335.126 246.795 335.126 248.241C335.126 249.688 333.954 250.859 332.508 250.859Z" fill="#263238"/>
<path opacity="0.6" d="M332.508 250.859H164.641C163.196 250.859 162.023 249.686 162.023 248.241C162.023 246.795 163.196 245.623 164.641 245.623H332.508C333.954 245.623 335.126 246.795 335.126 248.241C335.126 249.688 333.954 250.859 332.508 250.859Z" fill="white"/>
<path d="M308.691 240.958V243.995C308.691 244.906 307.124 245.55 306.225 245.55H235.275C234.365 245.55 232.913 244.906 232.913 243.995V240.958H308.691Z" fill="#263238"/>
<path opacity="0.6" d="M308.691 240.958V243.995C308.691 244.906 307.124 245.55 306.225 245.55H235.275C234.365 245.55 232.913 244.906 232.913 243.995V240.958H308.691Z" fill="white"/>
<path opacity="0.2" d="M308.69 240.958V243.995C308.69 244.906 307.124 245.55 306.224 245.55H259.429C258.519 245.55 257.022 244.906 257.022 243.995V240.958H308.69Z" fill="black"/>
<path d="M320.068 203.658L311.622 242.097C311.347 243.359 310.119 244.403 308.88 244.403H262.743C261.514 244.403 260.724 243.092 261.01 241.83L269.445 203.804C269.73 202.552 270.948 201.921 272.187 201.921H318.324C319.564 201.921 320.341 202.407 320.068 203.658Z" fill="#263238"/>
<path opacity="0.6" d="M320.068 203.658L311.622 242.097C311.347 243.359 310.119 244.403 308.88 244.403H262.743C261.514 244.403 260.724 243.092 261.01 241.83L269.445 203.804C269.73 202.552 270.948 201.921 272.187 201.921H318.324C319.564 201.921 320.341 202.407 320.068 203.658Z" fill="white"/>
<path opacity="0.4" d="M320.068 203.658L311.622 242.097C311.347 243.359 310.119 244.403 308.88 244.403H264.312C263.072 244.403 262.293 243.092 262.568 241.83L271.015 203.804C271.29 202.552 272.518 201.921 273.757 201.921H318.325C319.563 201.921 320.341 202.407 320.068 203.658Z" fill="white"/>
<path opacity="0.2" d="M292.927 228.294C295.074 228.294 297.278 225.986 297.841 223.151C298.392 220.303 297.106 217.996 294.947 217.996C294.545 217.996 294.143 218.076 293.753 218.225C293.247 220.441 291.743 222.301 290.09 222.921C290.067 223.002 290.045 223.07 290.033 223.151C289.47 225.986 290.768 228.294 292.927 228.294Z" fill="black"/>
<defs>
<filter id="filter0_d_118_264" x="54.6025" y="0" width="421.083" height="428.509" filterUnits="userSpaceOnUse" color-interpolation-filters="sRGB">
<feFlood flood-opacity="0" result="BackgroundImageFix"/>
<feColorMatrix in="SourceAlpha" type="matrix" values="0 0 0 0 0 0 0 0 0 0 0 0 0 0 0 0 0 0 127 0" result="hardAlpha"/>
<feOffset dy="4"/>
<feGaussianBlur stdDeviation="2"/>
<feComposite in2="hardAlpha" operator="out"/>
<feColorMatrix type="matrix" values="0 0 0 0 0 0 0 0 0 0 0 0 0 0 0 0 0 0 0.25 0"/>
<feBlend mode="normal" in2="BackgroundImageFix" result="effect1_dropShadow_118_264"/>
<feBlend mode="normal" in="SourceGraphic" in2="effect1_dropShadow_118_264" result="shape"/>
</filter>
<filter id="filter1_d_118_264" x="49.4868" y="25.9888" width="444.262" height="369.449" filterUnits="userSpaceOnUse" color-interpolation-filters="sRGB">
<feFlood flood-opacity="0" result="BackgroundImageFix"/>
<feColorMatrix in="SourceAlpha" type="matrix" values="0 0 0 0 0 0 0 0 0 0 0 0 0 0 0 0 0 0 127 0" result="hardAlpha"/>
<feOffset dy="4"/>
<feGaussianBlur stdDeviation="2"/>
<feComposite in2="hardAlpha" operator="out"/>
<feColorMatrix type="matrix" values="0 0 0 0 0 0 0 0 0 0 0 0 0 0 0 0 0 0 0.25 0"/>
<feBlend mode="normal" in2="BackgroundImageFix" result="effect1_dropShadow_118_264"/>
<feBlend mode="normal" in="SourceGraphic" in2="effect1_dropShadow_118_264" result="shape"/>
</filter>
<filter id="filter2_d_118_264" x="0" y="424.592" width="510.778" height="37.3618" filterUnits="userSpaceOnUse" color-interpolation-filters="sRGB">
<feFlood flood-opacity="0" result="BackgroundImageFix"/>
<feColorMatrix in="SourceAlpha" type="matrix" values="0 0 0 0 0 0 0 0 0 0 0 0 0 0 0 0 0 0 127 0" result="hardAlpha"/>
<feOffset dy="4"/>
<feGaussianBlur stdDeviation="2"/>
<feComposite in2="hardAlpha" operator="out"/>
<feColorMatrix type="matrix" values="0 0 0 0 0 0 0 0 0 0 0 0 0 0 0 0 0 0 0.25 0"/>
<feBlend mode="normal" in2="BackgroundImageFix" result="effect1_dropShadow_118_264"/>
<feBlend mode="normal" in="SourceGraphic" in2="effect1_dropShadow_118_264" result="shape"/>
</filter>
</defs>
</svg>
